<svg width="81" height="81" viewBox="0 0 81 81" xmlns="http://www.w3.org/2000/svg">
<path fill-rule="evenodd" clip-rule="evenodd" d="M65.7197 5.05566V15.1663H75.8303V21.9068H65.7197V31.9837C65.7197 31.9837 59.0129 32.0174 58.9792 31.9837V21.9068H48.8686C48.8686 21.9068 48.9023 15.2 48.8686 15.1663H58.9792V5.05566H65.7197ZM58.9792 69.0899H11.7961V21.9068H42.1281V15.1663H11.7961C8.08886 15.1663 5.05566 18.1995 5.05566 21.9068V69.0899C5.05566 72.7971 8.08886 75.8303 11.7961 75.8303H58.9792C62.6865 75.8303 65.7197 72.7971 65.7197 69.0899V38.7579H58.9792V69.0899ZM32.7252 58.4063L26.1196 50.4525L16.8514 62.3494H53.9239L41.9933 46.4757L32.7252 58.4063Z"/>
</svg>
