<svg width="81" height="81" viewBox="0 0 81 81" xmlns="http://www.w3.org/2000/svg">
<path fill-rule="evenodd" clip-rule="evenodd" d="M40.4425 10.1104V23.5912H74.1447V70.7744H6.74023V10.1104H40.4425ZM13.4807 64.0339H20.2211V57.2935H13.4807V64.0339ZM20.2211 50.553H13.4807V43.8126H20.2211V50.553ZM13.4807 37.0721H20.2211V30.3317H13.4807V37.0721ZM20.2211 23.5912H13.4807V16.8508H20.2211V23.5912ZM26.9616 64.0339H33.702V57.2935H26.9616V64.0339ZM33.702 50.553H26.9616V43.8126H33.702V50.553ZM26.9616 37.0721H33.702V30.3317H26.9616V37.0721ZM33.702 23.5912H26.9616V16.8508H33.702V23.5912ZM40.4425 64.0339H67.4042V30.3317H40.4425V37.0721H47.1829V43.8126H40.4425V50.553H47.1829V57.2935H40.4425V64.0339ZM60.6638 37.0721H53.9234V43.8126H60.6638V37.0721ZM53.9234 50.553H60.6638V57.2935H53.9234V50.553Z"/>
</svg>
