<svg width="51" height="48" viewBox="0 0 51 48" fill="none" xmlns="http://www.w3.org/2000/svg">
<path d="M13.5294 42.7554H9.30863C7.20992 42.7554 5.50293 41.0476 5.50293 38.9512V34.7305C5.50293 32.6333 7.20915 30.9255 9.30863 30.9255H13.5294C15.6281 30.9255 17.3335 32.6333 17.3335 34.7305V38.9512C17.3327 41.0476 15.6281 42.7554 13.5294 42.7554ZM9.30863 32.9098C8.30327 32.9098 7.48793 33.7267 7.48793 34.7305V38.9512C7.48793 39.9519 8.30327 40.7688 9.30863 40.7688H13.5294C14.5316 40.7688 15.3501 39.9519 15.3501 38.9512V34.7305C15.3501 33.7267 14.5316 32.9098 13.5294 32.9098H9.30863Z" fill="#1CA9E3"/>
<path d="M43.1927 47.6793H3.80725C1.707 47.6793 0 45.9746 0 43.8736V29.8041C0 27.7086 1.70622 26 3.80725 26H43.1927C45.2914 26 47 27.7078 47 29.8041V43.8736C47 45.9739 45.2922 47.6793 43.1927 47.6793ZM3.80725 27.9881C2.80346 27.9881 1.98345 28.8035 1.98345 29.8041V43.8736C1.98345 44.879 2.80346 45.6943 3.80725 45.6943H43.1927C44.1965 45.6943 45.015 44.879 45.015 43.8736V29.8041C45.015 28.8035 44.1965 27.9881 43.1927 27.9881H3.80725Z" fill="#1CA9E3"/>
<path d="M39.6245 35.5831H21.7579C21.212 35.5831 20.7666 35.1384 20.7666 34.5879C20.7666 34.042 21.212 33.595 21.7579 33.595H39.6245C40.172 33.595 40.6159 34.042 40.6159 34.5879C40.6167 35.1384 40.172 35.5831 39.6245 35.5831Z" fill="#1CA9E3"/>
<path d="M39.6245 39.9224H21.7579C21.212 39.9224 20.7666 39.4816 20.7666 38.9326C20.7666 38.382 21.212 37.9397 21.7579 37.9397H39.6245C40.172 37.9397 40.6159 38.382 40.6159 38.9326C40.6167 39.4808 40.172 39.9224 39.6245 39.9224Z" fill="#1CA9E3"/>
<path d="M50.035 8.86994C50.035 11.2999 49.945 13.5649 49.765 15.6649C49.585 17.7649 49.345 19.8949 49.045 22.0549H43.915C43.615 19.8949 43.36 17.7649 43.15 15.6649C42.97 13.5649 42.88 11.2999 42.88 8.86994V0.814941H50.035V8.86994ZM50.62 28.4449C50.62 29.7649 50.185 30.7849 49.315 31.5049C48.475 32.2249 47.515 32.5849 46.435 32.5849C45.355 32.5849 44.38 32.2249 43.51 31.5049C42.67 30.7849 42.25 29.7649 42.25 28.4449C42.25 27.1249 42.67 26.1049 43.51 25.3849C44.38 24.6649 45.355 24.3049 46.435 24.3049C47.515 24.3049 48.475 24.6649 49.315 25.3849C50.185 26.1049 50.62 27.1249 50.62 28.4449Z" fill="#EA504B"/>
</svg>
