<svg width="90" height="90" viewBox="0 0 90 90" fill="none" xmlns="http://www.w3.org/2000/svg">
<path d="M68.383 44.783V42.433H62.3H61.125H47.379V44.783H51.842V62.674H54.19V44.783H61.125V65.338H68.268V62.988H63.475V44.783H68.383Z" fill="white"/>
<path d="M27.559 52.041C20.197 52.041 14.234 46.08 14.234 38.717C14.234 31.888 19.331 26.192 26.092 25.491L29.656 25.124L31.322 21.96C34.488 15.866 40.683 12.066 47.546 12.066C56.274 12.066 63.802 18.26 65.504 26.823L66.5 31.82L71.6 32.189C76.791 32.522 80.859 36.885 80.859 42.048C80.859 47.547 76.363 52.041 70.866 52.041V58.703C80.059 58.703 87.52 51.24 87.52 42.048C87.52 33.25 80.692 26.123 72.029 25.524C69.765 14.032 59.675 5.40399 47.547 5.40399C37.919 5.40399 29.558 10.871 25.395 18.863C15.365 19.926 7.57001 28.423 7.57001 38.717C7.57001 49.744 16.531 58.703 27.558 58.703V52.041H27.559Z" fill="white"/>
<path d="M71.123 47.523C68.965 47.523 67.207 45.767 67.207 43.608C67.207 41.449 68.965 39.691 71.123 39.691C73.281 39.691 75.039 41.449 75.039 43.608C75.039 45.767 73.281 47.523 71.123 47.523ZM71.123 42.042C70.26 42.042 69.557 42.744 69.557 43.609C69.557 44.472 70.26 45.174 71.123 45.174C71.986 45.174 72.689 44.472 72.689 43.609C72.689 42.744 71.986 42.042 71.123 42.042Z" fill="white"/>
<path d="M58.803 27.29C57.053 27.29 55.569 28.444 55.069 30.03H48.395L40.874 45.17V73.168H7.57001V64.254C9.15801 63.754 10.312 62.27 10.312 60.52C10.312 58.362 8.55401 56.604 6.39601 56.604C4.23601 56.604 2.48001 58.362 2.48001 60.52C2.48001 62.27 3.63401 63.754 5.22201 64.254V75.518H43.222V45.722L49.851 32.379H55.068C55.568 33.965 57.052 35.12 58.802 35.12C60.96 35.12 62.718 33.362 62.718 31.205C62.719 29.045 60.961 27.29 58.803 27.29ZM6.39601 58.953C7.25901 58.953 7.96201 59.656 7.96201 60.519C7.96201 61.384 7.25901 62.085 6.39601 62.085C5.53301 62.085 4.83001 61.385 4.83001 60.52C4.83001 59.656 5.53301 58.953 6.39601 58.953ZM58.803 32.771C57.94 32.771 57.237 32.069 57.237 31.206C57.237 30.341 57.94 29.639 58.803 29.639C59.666 29.639 60.369 30.341 60.369 31.206C60.369 32.069 59.666 32.771 58.803 32.771Z" fill="white"/>
<path d="M29.506 35.381C29.773 34.851 29.926 34.255 29.926 33.623C29.926 31.464 28.17 29.707 26.012 29.707C23.853 29.707 22.096 31.464 22.096 33.623C22.096 35.781 23.853 37.538 26.012 37.538C26.684 37.538 27.317 37.368 27.869 37.068L33.743 43.105V65.337H17.103V67.687H36.092V42.152L29.506 35.381ZM24.445 33.624C24.445 32.76 25.148 32.058 26.011 32.058C26.874 32.058 27.576 32.76 27.576 33.624C27.576 34.487 26.874 35.189 26.011 35.189C25.148 35.189 24.445 34.487 24.445 33.624Z" fill="white"/>
<path d="M79.231 68.088H56.75C56.25 66.5 54.766 65.346 53.016 65.346C50.856 65.346 49.1 67.104 49.1 69.262C49.1 71.012 50.254 72.496 51.842 72.998V79.834H17.104V82.184H54.19V72.998C55.406 72.613 56.367 71.652 56.75 70.437H79.231V68.088ZM53.016 70.828C52.153 70.828 51.45 70.125 51.45 69.262C51.45 68.399 52.153 67.696 53.016 67.696C53.879 67.696 54.582 68.399 54.582 69.262C54.582 70.125 53.879 70.828 53.016 70.828Z" fill="white"/>
</svg>
