<svg width="90" height="90" viewBox="0 0 90 90" fill="none" xmlns="http://www.w3.org/2000/svg">
<path d="M59.204 58.094L58.268 49.432L52.287 47.455C51.723 46.156 51.039 44.926 50.261 43.767L51.83 37.653L45.043 32.188L39.406 35.026C38.107 34.512 36.759 34.108 35.368 33.833L32.163 28.413L23.497 29.35L21.523 35.329C20.223 35.894 18.993 36.576 17.834 37.355L11.721 35.787L6.256 42.574L9.094 48.213C8.581 49.51 8.176 50.859 7.9 52.247L2.479 55.454L3.415 64.118L9.396 66.095C9.961 67.394 10.644 68.624 11.422 69.783L9.852 75.897L16.64 81.363L22.279 78.524C23.576 79.038 24.926 79.442 26.314 79.715L29.521 85.137L38.185 84.202L40.161 78.221C41.459 77.656 42.692 76.974 43.849 76.195L49.963 77.763L55.429 70.976L52.59 65.337C53.103 64.04 53.507 62.691 53.781 61.303L59.204 58.094ZM32.337 70.626C24.699 71.45 17.816 65.908 16.99 58.27C16.166 50.633 21.709 43.749 29.345 42.922C36.982 42.1 43.868 47.642 44.693 55.28C45.518 62.917 39.976 69.802 32.337 70.626Z" fill="white"/>
<path d="M86.934 58.755L87.52 55.164L85.331 53.706C85.248 53.121 85.108 52.55 84.925 51.996L86.234 49.711L84.11 46.759L81.527 47.278C81.061 46.927 80.564 46.615 80.034 46.349L79.346 43.811L75.756 43.227L74.297 45.415C73.713 45.5 73.141 45.637 72.59 45.821L70.304 44.513L67.353 46.639L67.869 49.221C67.518 49.685 67.206 50.184 66.942 50.712L64.404 51.401L63.821 54.99L66.009 56.448C66.092 57.035 66.231 57.606 66.415 58.158L65.105 60.445L67.231 63.395L69.814 62.879C70.279 63.229 70.777 63.541 71.305 63.805L71.993 66.343L75.584 66.927L77.042 64.739C77.627 64.656 78.198 64.517 78.751 64.333L81.036 65.643L83.988 63.517L83.471 60.933C83.821 60.467 84.133 59.972 84.399 59.442L86.934 58.755ZM74.734 60.818C71.568 60.301 69.414 57.308 69.927 54.142C70.443 50.979 73.437 48.824 76.602 49.337C79.767 49.854 81.922 52.845 81.407 56.011C80.893 59.177 77.898 61.332 74.734 60.818Z" fill="white"/>
<path d="M81.569 29.493L83.239 24.541L80.479 21.96C80.498 21.11 80.435 20.27 80.302 19.444L82.694 16.508L80.374 11.825L76.591 11.952C76.014 11.347 75.383 10.788 74.694 10.288L74.312 6.52998L69.36 4.86298L66.78 7.62098C65.928 7.60198 65.088 7.66398 64.262 7.79698L61.327 5.40598L56.644 7.72798L56.77 11.509C56.166 12.087 55.607 12.719 55.108 13.406L51.348 13.79L49.68 18.741L52.44 21.32C52.42 22.17 52.484 23.013 52.617 23.838L50.225 26.774L52.545 31.455L56.327 31.328C56.904 31.933 57.537 32.492 58.225 32.994L58.606 36.75L63.559 38.42L66.138 35.66C66.988 35.681 67.829 35.617 68.657 35.484L71.591 37.875L76.272 35.555L76.146 31.772C76.75 31.194 77.311 30.562 77.809 29.876L81.569 29.493ZM63.791 29.559C59.425 28.086 57.072 23.338 58.543 18.973C60.015 14.608 64.763 12.251 69.128 13.725C73.495 15.196 75.849 19.945 74.378 24.312C72.906 28.677 68.157 31.03 63.791 29.559Z" fill="white"/>
</svg>
