<svg width="90" height="90" viewBox="0 0 90 90" fill="none" xmlns="http://www.w3.org/2000/svg">
<path d="M78.002 37.277C73.431 37.277 69.606 40.518 68.693 44.82L42.811 42.755L47.386 27.337C51.254 27.209 54.365 24.03 54.365 20.132C54.365 16.153 51.126 12.917 47.148 12.917C43.169 12.917 39.931 16.153 39.931 20.132C39.931 22.882 41.477 25.275 43.744 26.493L39.54 40.662L22.42 21.176C23.555 19.459 24.223 17.404 24.223 15.195C24.223 9.20097 19.345 4.32397 13.351 4.32397C7.358 4.32397 2.481 9.20097 2.481 15.195C2.481 21.189 7.358 26.065 13.351 26.065C15.785 26.065 18.027 25.252 19.84 23.895L36.244 42.566H17.454C16.629 39.49 13.825 37.215 10.491 37.215C6.512 37.215 3.275 40.452 3.275 44.432C3.275 48.41 6.512 51.648 10.491 51.648C13.824 51.648 16.628 49.373 17.454 46.298H36.308L17.477 68.252C16.235 67.625 14.835 67.262 13.351 67.262C8.276 67.262 4.145 71.393 4.145 76.469C4.145 81.547 8.276 85.676 13.351 85.676C18.429 85.676 22.558 81.547 22.558 76.469C22.558 74.223 21.748 72.166 20.409 70.567L40.256 47.432L48.21 58.27C47.089 59.543 46.401 61.208 46.401 63.034C46.401 67.013 49.639 70.249 53.618 70.249C57.597 70.249 60.835 67.013 60.835 63.034C60.835 59.055 57.598 55.817 53.618 55.817C52.813 55.817 52.043 55.956 51.319 56.198L44.287 46.618L68.655 48.563C69.486 52.969 73.358 56.313 78.002 56.313C83.25 56.313 87.52 52.043 87.52 46.795C87.52 41.547 83.25 37.277 78.002 37.277ZM47.148 15.902C49.481 15.902 51.378 17.799 51.378 20.131C51.378 22.464 49.481 24.362 47.148 24.362C44.815 24.362 42.917 22.464 42.917 20.131C42.917 17.799 44.815 15.902 47.148 15.902ZM5.467 15.195C5.467 10.847 9.003 7.30997 13.351 7.30997C17.699 7.30997 21.236 10.847 21.236 15.195C21.236 19.544 17.699 23.08 13.351 23.08C9.003 23.08 5.467 19.543 5.467 15.195ZM10.491 48.662C8.159 48.662 6.262 46.764 6.262 44.432C6.262 42.098 8.159 40.202 10.491 40.202C12.599 40.202 14.346 41.752 14.665 43.771V45.091C14.347 47.111 12.6 48.662 10.491 48.662ZM13.351 82.689C9.922 82.689 7.13 79.898 7.13 76.468C7.13 73.038 9.922 70.247 13.351 70.247C16.782 70.247 19.573 73.038 19.573 76.468C19.573 79.898 16.781 82.689 13.351 82.689ZM57.849 63.033C57.849 65.365 55.951 67.262 53.619 67.262C51.287 67.262 49.39 65.366 49.39 63.033C49.39 60.699 51.287 58.803 53.619 58.803C55.951 58.803 57.849 60.699 57.849 63.033ZM78.002 53.326C74.4 53.326 71.47 50.396 71.47 46.795C71.47 43.194 74.401 40.263 78.002 40.263C81.605 40.263 84.533 43.194 84.533 46.795C84.533 50.396 81.604 53.326 78.002 53.326Z" fill="white"/>
<path d="M40.368 54.385C45.8649 54.385 50.321 49.9289 50.321 44.432C50.321 38.9351 45.8649 34.479 40.368 34.479C34.8711 34.479 30.415 38.9351 30.415 44.432C30.415 49.9289 34.8711 54.385 40.368 54.385Z" fill="white"/>
</svg>
