<?xml version="1.0" encoding="utf-8"?>
<!-- Generator: Adobe Illustrator 16.0.0, SVG Export Plug-In . SVG Version: 6.00 Build 0)  -->
<!DOCTYPE svg PUBLIC "-//W3C//DTD SVG 1.1//EN" "http://www.w3.org/Graphics/SVG/1.1/DTD/svg11.dtd">
<svg version="1.1" xmlns="http://www.w3.org/2000/svg" xmlns:xlink="http://www.w3.org/1999/xlink" x="0px" y="0px" width="90px"
	 height="90px" viewBox="0 0 90 90" enable-background="new 0 0 90 90" xml:space="preserve">
<g id="Ebene_13" display="none">
	
		<path display="inline" fill-rule="evenodd" clip-rule="evenodd" fill="#23A8E0" stroke="#F2F2F2" stroke-width="2" stroke-linecap="round" stroke-linejoin="round" stroke-miterlimit="10" d="
		M61.727,80.043c-5.055,0-10.111-0.066-15.164,0.042c-1.481,0.031-2.206-0.645-2.551-2.338c-0.369-1.805-0.841-3.577-1.256-5.367
		c-0.349-1.5-0.042-2.728,0.947-3.744c1.022-1.051,1.872-0.559,2.871,0.14c2.198,1.536,4.461-0.12,4.59-3.267
		c0.073-1.804-0.658-3.213-1.515-4.547c-1.169-1.825-2.212-0.595-3.341,0.151c-1.261,0.838-2.309,0.246-3.187-1.034
		c-1.676-2.44-1.912-9.763-0.344-12.303c0.55-0.891,1.363-0.678,2.085-0.417c2.021,0.726,4.018,1.546,6.04,2.262
		c1.012,0.358,2.088,1.494,3.066-0.079c0.902-1.453,1.106-3.034,0.437-4.72c-0.957-2.408-1.314-4.692,0.354-6.97
		c1.38-1.883,4.625-2.57,6.656-1.171c1.905,1.313,2.624,4.22,1.74,7.017c-0.19,0.606-0.379,1.217-0.526,1.841
		c-0.621,2.62,0.503,4.221,2.678,3.698c1.398-0.338,2.755-0.889,4.011-1.794c2.359-1.704,4.936-2.735,7.577-3.514
		c1.69-0.497,2.705-0.094,2.686,2.539c-0.077,10.278-0.062,20.56-0.005,30.838c0.011,2.057-0.564,2.799-2.229,2.77
		C72.139,79.986,66.932,80.043,61.727,80.043z"/>
	
		<path display="inline" fill-rule="evenodd" clip-rule="evenodd" fill="#E9504B" stroke="#F2F2F2" stroke-width="2" stroke-linecap="round" stroke-linejoin="round" stroke-miterlimit="10" d="
		M26.905,10.115c4.83-0.001,9.659,0.045,14.489-0.027c1.593-0.023,2.464,0.333,2.545,2.708c0.079,2.288,0.704,4.555,1.146,6.814
		c0.414,2.114-0.289,3.589-1.572,4.856c-1.167,1.151-2.183,1.088-3.478,0.1c-1.611-1.227-3.579-1.08-4.813,0.578
		c-1.261,1.695-1.254,4.184-0.575,6.367c0.519,1.668,1.807,1.893,3.063,1.564c1.101-0.289,2.15-0.865,3.24-1.228
		c2.458-0.818,4.635,1.673,3.969,4.719c-0.686,3.142-1.647,6.188-2.462,9.288c-0.16,0.611-0.448,0.917-0.928,1.065
		c-2.405,0.735-4.789,1.621-7.219,2.194c-1.943,0.459-3.255-0.984-3.366-3.674c-0.088-2.112-0.632-4.026-1.254-5.908
		c-0.74-2.244-2.894-3.501-4.588-2.885c-2.706,0.984-3.171,2.865-1.39,5.549c0.832,1.253,2.183,2.417,1.095,4.317
		c-1.078,1.88-2.493,2.227-4.364,1.524c-3.004-1.127-6.05-2.258-9.25-2.212c-1.174,0.018-1.598-0.685-1.597-2.059
		C9.608,33.297,9.622,22.831,9.58,12.363c-0.008-1.995,0.864-2.269,2.159-2.26C16.794,10.137,21.85,10.117,26.905,10.115z"/>
	
		<path display="inline" fill-rule="evenodd" clip-rule="evenodd" fill="#B3B3B3" stroke="#F2F2F2" stroke-width="2" stroke-linecap="round" stroke-linejoin="round" stroke-miterlimit="10" d="
		M26.745,79.688c-4.978,0-9.955-0.058-14.931,0.032c-1.661,0.03-2.247-0.7-2.234-2.762c0.059-9.527,0.059-19.055,0-28.58
		c-0.013-2.059,0.558-2.869,2.231-2.741c3.098,0.236,6.074,1.184,9.014,2.285c1.395,0.521,2.583,0.458,3.375-1.086
		c0.741-1.442-0.307-2.397-0.95-3.37c-0.974-1.474-2.05-2.884-0.787-4.903c1.341-2.145,3.336-2.809,5.176-1.8
		c3.006,1.647,3.575,5.075,3.964,8.504c0.41,3.61,0.912,4.177,3.766,3.33c1.68-0.499,3.355-1.019,5.041-1.483
		c1.854-0.512,2.358,0.088,1.947,2.45c-0.508,2.91-1.247,5.77-0.003,8.699c0.701,1.65,1.639,2.559,3.076,1.616
		c1.212-0.796,2.234-1.987,3.566-0.215c1.399,1.859,2.462,3.865,1.965,6.496c-0.615,3.258-3.153,4.562-5.594,2.937
		c-0.714-0.475-1.334-0.868-2.075-0.201c-0.784,0.705-0.909,1.708-0.688,2.757c0.362,1.71,0.724,3.43,1.23,5.079
		c0.667,2.168,0.265,3.031-1.706,2.992C37.001,79.621,31.872,79.689,26.745,79.688z"/>
	
		<path display="inline" fill-rule="evenodd" clip-rule="evenodd" fill="#F8B133" stroke="#F2F2F2" stroke-width="2" stroke-linecap="round" stroke-linejoin="round" stroke-miterlimit="10" d="
		M79.579,12.975c0.019-2.24-0.644-2.91-2.378-2.876c-5.125,0.099-10.255,0.035-15.382,0.035c-5.203,0-10.408,0.092-15.608-0.046
		c-2.046-0.054-2.536,1.099-2.221,3.227c0.297,2.011,0.646,4.016,1.072,5.99c0.359,1.665,0.314,3.081-0.819,4.317
		c-1.181,1.291-2.193,0.895-3.445,0.047c-1.991-1.351-5.201-0.428-5.802,1.646c-0.717,2.478-1.247,5.25,0.253,7.486
		c1.389,2.071,3.312,1.106,5.048,0.421c0.287-0.113,0.569-0.245,0.856-0.359c1.158-0.463,2.319-1.023,3.337,0.398
		c0.994,1.386,0.835,2.861,0.332,4.441c-0.714,2.25-1.384,4.525-2.02,6.812c-0.283,1.015-0.43,2.12,0.785,2.387
		c2.903,0.634,5.638,1.967,8.414,3.11c1.063,0.437,1.723-0.019,2.387-0.892c1.699-2.231,1.238-4.596,0.281-6.98
		c-1.001-2.492-0.163-4.587,1.407-5.813c1.624-1.268,3.771-1.335,5.325,0.227c1.364,1.371,1.962,3.416,1.084,5.786
		c-0.636,1.713-1.598,3.594-0.291,5.469c1.457,2.096,3.289,1.347,5.027,0.731c0.786-0.279,1.531-0.78,2.254-1.272
		c2.593-1.769,5.333-3.108,8.256-3.565c1.53-0.238,1.836-1.066,1.83-2.708C79.529,31.655,79.501,22.314,79.579,12.975z"/>
</g>
<g id="Ebene_14" display="none">
	
		<path display="inline" fill-rule="evenodd" clip-rule="evenodd" fill="#23A8E0" stroke="#F2F2F2" stroke-width="2" stroke-linecap="round" stroke-linejoin="round" stroke-miterlimit="10" d="
		M61.727,80.043c-5.055,0-10.111-0.066-15.164,0.042c-1.481,0.031-2.206-0.645-2.551-2.338c-0.369-1.805-0.841-3.577-1.256-5.367
		c-0.349-1.5-0.042-2.728,0.947-3.744c1.022-1.051,1.872-0.559,2.871,0.14c2.198,1.536,4.461-0.12,4.59-3.267
		c0.073-1.804-0.658-3.213-1.515-4.547c-1.169-1.825-2.212-0.595-3.341,0.151c-1.261,0.838-2.309,0.246-3.187-1.034
		c-1.676-2.44-1.912-9.763-0.344-12.303c0.55-0.891,1.363-0.678,2.085-0.417c2.021,0.726,4.018,1.546,6.04,2.262
		c1.012,0.358,2.088,1.494,3.066-0.079c0.902-1.453,1.106-3.034,0.437-4.72c-0.957-2.408-1.314-4.692,0.354-6.97
		c1.38-1.883,4.625-2.57,6.656-1.171c1.905,1.313,2.624,4.22,1.74,7.017c-0.19,0.606-0.379,1.217-0.526,1.841
		c-0.621,2.62,0.503,4.221,2.678,3.698c1.398-0.338,2.755-0.889,4.011-1.794c2.359-1.704,4.936-2.735,7.577-3.514
		c1.69-0.497,2.705-0.094,2.686,2.539c-0.077,10.278-0.062,20.56-0.005,30.838c0.011,2.057-0.564,2.799-2.229,2.77
		C72.139,79.986,66.932,80.043,61.727,80.043z"/>
	
		<path display="inline" fill-rule="evenodd" clip-rule="evenodd" fill="#B3B3B3" stroke="#F2F2F2" stroke-width="2" stroke-linecap="round" stroke-linejoin="round" stroke-miterlimit="10" d="
		M26.745,79.688c-4.978,0-9.955-0.058-14.931,0.032c-1.661,0.03-2.247-0.7-2.234-2.762c0.059-9.527,0.059-19.055,0-28.58
		c-0.013-2.059,0.558-2.869,2.231-2.741c3.098,0.236,6.074,1.184,9.014,2.285c1.395,0.521,2.583,0.458,3.375-1.086
		c0.741-1.442-0.307-2.397-0.95-3.37c-0.974-1.474-2.05-2.884-0.787-4.903c1.341-2.145,3.336-2.809,5.176-1.8
		c3.006,1.647,3.575,5.075,3.964,8.504c0.41,3.61,0.912,4.177,3.766,3.33c1.68-0.499,3.355-1.019,5.041-1.483
		c1.854-0.512,2.358,0.088,1.947,2.45c-0.508,2.91-1.247,5.77-0.003,8.699c0.701,1.65,1.639,2.559,3.076,1.616
		c1.212-0.796,2.234-1.987,3.566-0.215c1.399,1.859,2.462,3.865,1.965,6.496c-0.615,3.258-3.153,4.562-5.594,2.937
		c-0.714-0.475-1.334-0.868-2.075-0.201c-0.784,0.705-0.909,1.708-0.688,2.757c0.362,1.71,0.724,3.43,1.23,5.079
		c0.667,2.168,0.265,3.031-1.706,2.992C37.001,79.621,31.872,79.689,26.745,79.688z"/>
	
		<path display="inline" fill-rule="evenodd" clip-rule="evenodd" fill="#E9504B" stroke="#F2F2F2" stroke-width="2" stroke-linecap="round" stroke-linejoin="round" stroke-miterlimit="10" d="
		M26.905,10.115c4.83-0.001,9.659,0.045,14.489-0.027c1.593-0.023,2.464,0.333,2.545,2.708c0.079,2.288,0.704,4.555,1.146,6.814
		c0.414,2.114-0.289,3.589-1.572,4.856c-1.167,1.151-2.183,1.088-3.478,0.1c-1.611-1.227-3.579-1.08-4.813,0.578
		c-1.261,1.695-1.254,4.184-0.575,6.367c0.519,1.668,1.807,1.893,3.063,1.564c1.101-0.289,2.15-0.865,3.24-1.228
		c2.458-0.818,4.635,1.673,3.969,4.719c-0.686,3.142-1.647,6.188-2.462,9.288c-0.16,0.611-0.448,0.917-0.928,1.065
		c-2.405,0.735-4.789,1.621-7.219,2.194c-1.943,0.459-3.255-0.984-3.366-3.674c-0.088-2.112-0.632-4.026-1.254-5.908
		c-0.74-2.244-2.894-3.501-4.588-2.885c-2.706,0.984-3.171,2.865-1.39,5.549c0.832,1.253,2.183,2.417,1.095,4.317
		c-1.078,1.88-2.493,2.227-4.364,1.524c-3.004-1.127-6.05-2.258-9.25-2.212c-1.174,0.018-1.598-0.685-1.597-2.059
		C9.608,33.297,9.622,22.831,9.58,12.363c-0.008-1.995,0.864-2.269,2.159-2.26C16.794,10.137,21.85,10.117,26.905,10.115z"/>
</g>
<g id="Ebene_15" display="none">
	
		<path display="inline" fill-rule="evenodd" clip-rule="evenodd" fill="#B3B3B3" stroke="#F2F2F2" stroke-width="2" stroke-linecap="round" stroke-linejoin="round" stroke-miterlimit="10" d="
		M26.745,79.688c-4.978,0-9.955-0.058-14.931,0.032c-1.661,0.03-2.247-0.7-2.234-2.762c0.059-9.527,0.059-19.055,0-28.58
		c-0.013-2.059,0.558-2.869,2.231-2.741c3.098,0.236,6.074,1.184,9.014,2.285c1.395,0.521,2.583,0.458,3.375-1.086
		c0.741-1.442-0.307-2.397-0.95-3.37c-0.974-1.474-2.05-2.884-0.787-4.903c1.341-2.145,3.336-2.809,5.176-1.8
		c3.006,1.647,3.575,5.075,3.964,8.504c0.41,3.61,0.912,4.177,3.766,3.33c1.68-0.499,3.355-1.019,5.041-1.483
		c1.854-0.512,2.358,0.088,1.947,2.45c-0.508,2.91-1.247,5.77-0.003,8.699c0.701,1.65,1.639,2.559,3.076,1.616
		c1.212-0.796,2.234-1.987,3.566-0.215c1.399,1.859,2.462,3.865,1.965,6.496c-0.615,3.258-3.153,4.562-5.594,2.937
		c-0.714-0.475-1.334-0.868-2.075-0.201c-0.784,0.705-0.909,1.708-0.688,2.757c0.362,1.71,0.724,3.43,1.23,5.079
		c0.667,2.168,0.265,3.031-1.706,2.992C37.001,79.621,31.872,79.689,26.745,79.688z"/>
	
		<path display="inline" fill-rule="evenodd" clip-rule="evenodd" fill="#23A8E0" stroke="#F2F2F2" stroke-width="2" stroke-linecap="round" stroke-linejoin="round" stroke-miterlimit="10" d="
		M61.727,80.043c-5.055,0-10.111-0.066-15.164,0.042c-1.481,0.031-2.206-0.645-2.551-2.338c-0.369-1.805-0.841-3.577-1.256-5.367
		c-0.349-1.5-0.042-2.728,0.947-3.744c1.022-1.051,1.872-0.559,2.871,0.14c2.198,1.536,4.461-0.12,4.59-3.267
		c0.073-1.804-0.658-3.213-1.515-4.547c-1.169-1.825-2.212-0.595-3.341,0.151c-1.261,0.838-2.309,0.246-3.187-1.034
		c-1.676-2.44-1.912-9.763-0.344-12.303c0.55-0.891,1.363-0.678,2.085-0.417c2.021,0.726,4.018,1.546,6.04,2.262
		c1.012,0.358,2.088,1.494,3.066-0.079c0.902-1.453,1.106-3.034,0.437-4.72c-0.957-2.408-1.314-4.692,0.354-6.97
		c1.38-1.883,4.625-2.57,6.656-1.171c1.905,1.313,2.624,4.22,1.74,7.017c-0.19,0.606-0.379,1.217-0.526,1.841
		c-0.621,2.62,0.503,4.221,2.678,3.698c1.398-0.338,2.755-0.889,4.011-1.794c2.359-1.704,4.936-2.735,7.577-3.514
		c1.69-0.497,2.705-0.094,2.686,2.539c-0.077,10.278-0.062,20.56-0.005,30.838c0.011,2.057-0.564,2.799-2.229,2.77
		C72.139,79.986,66.932,80.043,61.727,80.043z"/>
</g>
<g id="Ebene_9" display="none">
	<g display="inline">
		<path fill="#23A8E0" d="M9.316,60.297c0-7.463,6.072-13.535,13.535-13.535h3.676h18.712h3.678c9.117,0,16.535-7.418,16.535-16.537
			c0-9.117-7.418-16.534-16.535-16.534H7.816v3h41.101c7.463,0,13.535,6.072,13.535,13.536c0,7.463-6.072,13.535-13.535,13.535
			h-3.678H26.527h-3.676c-9.117,0-16.535,7.417-16.535,16.535s7.418,16.535,16.535,16.535h41.101v-3H22.851
			C15.388,73.832,9.316,67.76,9.316,60.297z"/>
		<circle fill="#E9504B" cx="9.283" cy="15.191" r="5.746"/>
		<circle fill="#E9504B" cx="47.376" cy="15.191" r="5.746"/>
		<circle fill="#E9504B" cx="30.218" cy="45.262" r="5.746"/>
		<circle fill="#E9504B" cx="22.845" cy="75.332" r="5.746"/>
		<circle fill="#F8B133" cx="63.952" cy="75.332" r="4.082"/>
		<path fill="#F8B133" d="M64.644,76.756c-1.068-0.174-1.793-1.182-1.617-2.25l4.789-29.3c0.174-1.068,1.184-1.793,2.252-1.618
			c1.068,0.173,1.793,1.182,1.617,2.251l-4.789,29.3C66.72,76.207,65.712,76.932,64.644,76.756z"/>
		<polygon fill="#F8B133" points="84.472,60.443 67.757,57.711 69.751,45.523 86.464,48.254 80.62,53.555 		"/>
	</g>
</g>
<g id="Ebene_10" display="none">
	<g display="inline">
		<g>
			<path fill="#23A8E0" d="M28.643,55.648h-5.42c-2.695,0-4.887-2.193-4.887-4.885v-5.42c0-2.693,2.191-4.886,4.887-4.886h5.42
				c2.695,0,4.885,2.193,4.885,4.886v5.42C33.527,53.455,31.338,55.648,28.643,55.648z M23.223,43.005
				c-1.291,0-2.338,1.049-2.338,2.338v5.42c0,1.285,1.047,2.334,2.338,2.334h5.42c1.287,0,2.338-1.049,2.338-2.334v-5.42
				c0-1.289-1.051-2.338-2.338-2.338H23.223z"/>
			<path fill="#23A8E0" d="M66.734,61.971H16.158c-2.697,0-4.889-2.189-4.889-4.887V39.017c0-2.691,2.191-4.885,4.889-4.885h50.576
				c2.695,0,4.889,2.193,4.889,4.885v18.067C71.623,59.781,69.43,61.971,66.734,61.971z M16.158,36.685
				c-1.289,0-2.342,1.047-2.342,2.332v18.067c0,1.291,1.053,2.338,2.342,2.338h50.576c1.289,0,2.34-1.047,2.34-2.338V39.017
				c0-1.285-1.051-2.332-2.34-2.332H16.158z"/>
			<path fill="#23A8E0" d="M62.152,46.438H39.209c-0.701,0-1.273-0.571-1.273-1.278c0-0.701,0.572-1.275,1.273-1.275h22.943
				c0.703,0,1.273,0.574,1.273,1.275C63.426,45.867,62.855,46.438,62.152,46.438z"/>
			<path fill="#23A8E0" d="M62.152,52.01H39.209c-0.701,0-1.273-0.566-1.273-1.271c0-0.707,0.572-1.275,1.273-1.275h22.943
				c0.703,0,1.273,0.568,1.273,1.275C63.426,51.443,62.855,52.01,62.152,52.01z"/>
		</g>
		<circle fill="#F8B133" cx="69.253" cy="31.173" r="12.296"/>
		<g>
			<path fill="#FFFFFF" d="M69.252,33.449c-0.439,0.547-0.934,1.009-1.48,1.388c-0.547,0.38-1.191,0.569-1.932,0.569
				c-1.305,0-2.332-0.374-3.08-1.124c-0.752-0.749-1.125-1.787-1.125-3.108c0-1.358,0.373-2.402,1.125-3.135
				c0.748-0.731,1.775-1.099,3.08-1.099c0.74,0,1.389,0.186,1.945,0.557c0.555,0.37,1.043,0.837,1.467,1.401
				c0.441-0.547,0.936-1.009,1.482-1.389c0.545-0.379,1.191-0.569,1.932-0.569c1.305,0,2.332,0.375,3.08,1.124
				c0.752,0.751,1.125,1.786,1.125,3.109c0,1.358-0.373,2.403-1.125,3.135c-0.748,0.731-1.775,1.098-3.08,1.098
				c-0.74,0-1.389-0.185-1.945-0.556C70.166,34.479,69.678,34.013,69.252,33.449z M67.852,31.174
				c-0.248-0.494-0.539-0.865-0.875-1.111c-0.334-0.247-0.697-0.371-1.082-0.371c-0.406,0-0.715,0.156-0.928,0.465
				c-0.211,0.309-0.316,0.646-0.316,1.018s0.105,0.71,0.316,1.018c0.213,0.309,0.521,0.463,0.928,0.463
				c0.385,0,0.74-0.114,1.057-0.344C67.27,32.082,67.568,31.703,67.852,31.174z M70.654,31.174c0.246,0.493,0.539,0.865,0.873,1.109
				c0.336,0.249,0.697,0.371,1.086,0.371c0.404,0,0.715-0.154,0.926-0.463c0.211-0.308,0.316-0.646,0.316-1.018
				s-0.105-0.709-0.316-1.018s-0.521-0.465-0.926-0.465c-0.389,0-0.742,0.116-1.059,0.346
				C71.236,30.266,70.936,30.645,70.654,31.174z"/>
		</g>
	</g>
</g>
<g id="Ebene_11" display="none">
	<g display="inline">
		<g>
			<line fill="none" stroke="#E9504B" stroke-width="3" stroke-miterlimit="10" x1="84.038" y1="62.034" x2="67.304" y2="66.767"/>
			<path fill="none" stroke="#23A8E0" stroke-width="3" stroke-miterlimit="10" d="M49.817,47.544
				c0.59,0.471,1.188,0.955,1.793,1.443c7.223,5.859,12.68,11.037,14.779,13.178s1.389,3.559,0.139,5.012l0,0
				c-1.25,1.451-3.441,1.615-4.895,0.367l-3.643-2.691"/>
			<path fill="none" stroke="#23A8E0" stroke-width="3" stroke-miterlimit="10" d="M5.962,37.682l23.822,8.88
				c0,0,6.736-5.737,10.975-5.737c0.947,0,2.27,0.688,3.838,1.817"/>
			<path fill="none" stroke="#23A8E0" stroke-width="3" stroke-miterlimit="10" d="M53.14,60.677l7.049,6.066
				c1.453,1.252,1.574,3.492,0.27,5.008l0,0c-1.867,2.455-5.826,0.211-7.277-1.039"/>
			<path fill="none" stroke="#23A8E0" stroke-width="3" stroke-miterlimit="10" d="M50.532,68.435l4.664,4.014
				c1.451,1.25,1.615,3.443,0.365,4.893l0,0c-1.25,1.453-3.441,1.619-4.895,0.367l-1.316-1.061"/>
			<path fill="none" stroke="#E9504B" stroke-width="3" stroke-miterlimit="10" d="M42.872,67.989c1.279,1.279,1.279,3.354,0,4.633
				l-4.703,4.703c-1.279,1.279-3.355,1.279-4.635,0l0,0c-1.279-1.279-1.279-3.355,0-4.635l4.703-4.701
				C39.517,66.71,41.593,66.71,42.872,67.989L42.872,67.989z"/>
			<path fill="none" stroke="#E9504B" stroke-width="3" stroke-miterlimit="10" d="M47.831,73.724
				c1.281,1.277,1.43,3.205,0.332,4.301l-4.029,4.029c-1.096,1.098-3.021,0.947-4.303-0.332l0,0
				c-1.279-1.279-1.428-3.205-0.332-4.301l4.029-4.029C44.626,72.294,46.552,72.442,47.831,73.724L47.831,73.724z"/>
			<line fill="none" stroke="#23A8E0" stroke-width="3" stroke-miterlimit="10" x1="6.212" y1="62.034" x2="27.235" y2="68.671"/>
			<path fill="none" stroke="#E9504B" stroke-width="3" stroke-miterlimit="10" d="M37.243,62.995c1.279,1.277,1.279,3.354,0,4.633
				l-4.703,4.703c-1.279,1.279-3.355,1.279-4.635,0l0,0c-1.279-1.281-1.281-3.354,0-4.633l4.703-4.703
				C33.888,61.716,35.964,61.716,37.243,62.995L37.243,62.995z"/>
			<path fill="none" stroke="#E9504B" stroke-width="3" stroke-miterlimit="10" d="M82.831,40.452l-21.846,5.738
				c0,0-6.424-5.738-10.83-5.738s-11.639,7.862-11.623,8.282c0.016,0.418,3.061,1.945,5.803,1.945c2.744,0,7.035-4.032,7.035-4.032"
				/>
		</g>
		<g>
			<path fill="#F8B133" d="M38.26,14c0.66-2.844,1.918-4.991,3.772-6.438c1.854-1.448,4.229-2.171,7.124-2.171
				c1.143,0,2.121,0.089,2.934,0.267s1.625,0.419,2.438,0.724l-1.18,4.419c-0.609-0.203-1.232-0.375-1.867-0.514
				s-1.422-0.21-2.361-0.21c-1.525,0-2.713,0.331-3.563,0.991c-0.852,0.661-1.467,1.638-1.848,2.934h8.458l-0.725,3.771h-8.228
				c-0.025,0.28-0.038,0.514-0.038,0.705c0,0.19,0,0.387,0,0.59c0,0.204,0,0.381,0,0.533s0.013,0.369,0.038,0.648h7.771
				l-0.723,3.771h-6.553c0.432,1.524,1.079,2.584,1.943,3.181c0.864,0.597,1.942,0.895,3.239,0.895c0.838,0,1.688-0.076,2.551-0.229
				s1.729-0.406,2.592-0.762l1.105,4.381c-0.688,0.356-1.57,0.667-2.648,0.934c-1.08,0.267-2.344,0.4-3.791,0.4
				c-3.175,0-5.6-0.768-7.277-2.305c-1.676-1.537-2.78-3.702-3.314-6.496h-2.742v-3.771h2.399c-0.025-0.279-0.038-0.496-0.038-0.648
				s0-0.33,0-0.533c0-0.203,0-0.419,0-0.648c0-0.229,0.013-0.444,0.038-0.647h-2.399V14H38.26z"/>
		</g>
	</g>
</g>
<g id="Ebene_12" display="none">
	<g display="inline">
		<path fill="#23A8E0" d="M79.729,15.695l-2.061-1.469l-16.531,9.537l0,0l-18.721-5.068c-0.133,0-0.252,0-0.252,0.169l-0.084,19.141
			c0.014,0.143,0.113,0.261,0.252,0.296l18.779,5.068v-5.778l-12.273-3.32c-0.137-0.042-0.236-0.161-0.254-0.304v-0.692
			c0-0.126,0.119-0.195,0.262-0.161l12.334,3.337v-5.778l-12.342-3.311c-0.143-0.038-0.246-0.158-0.264-0.304v-0.684
			c0.008-0.107,0.102-0.188,0.209-0.181c0.018,0.001,0.037,0.005,0.055,0.012l12.299,3.312l0,0l16.521-9.52l0,0L79.729,15.695z"/>
		<path fill="#E9504B" d="M77.491,40.835l-16.354,9.394v-5.702l11.354-6.555c0.119-0.076,0.193-0.205,0.203-0.346v-0.693
			c0-0.118-0.094-0.177-0.203-0.109l-11.328,6.504v-5.735l11.328-6.53c0.115-0.073,0.191-0.2,0.193-0.338v-0.692
			c0-0.126-0.084-0.178-0.201-0.11l-11.346,6.53v-5.778l16.303-9.402c0.109-0.067,0.195,0,0.195,0.11l0.059,19.108
			C77.687,40.63,77.612,40.759,77.491,40.835"/>
		<polygon fill-rule="evenodd" clip-rule="evenodd" fill="#FFFFFF" points="31.106,18.51 49.864,43.983 49.864,58.694 
			23.405,57.696 24.491,17.565 		"/>
		<g>
			<g id="Triangle_1_">
				<polygon fill-rule="evenodd" clip-rule="evenodd" fill="#F8B133" points="29.796,22.41 12.938,44.883 46.651,44.883 				"/>
			</g>
			<rect x="12.938" y="47.268" fill-rule="evenodd" clip-rule="evenodd" fill="#F8B133" width="33.713" height="7.648"/>
			<rect x="12.938" y="57.696" fill-rule="evenodd" clip-rule="evenodd" fill="#F8B133" width="33.713" height="7.649"/>
			<rect x="12.938" y="68.126" fill-rule="evenodd" clip-rule="evenodd" fill="#F8B133" width="33.713" height="7.648"/>
		</g>
	</g>
</g>
<g id="Ebene_5" display="none">
	<g display="inline">
		<g id="User_11_">
			<path fill-rule="evenodd" clip-rule="evenodd" fill="#23A8E0" d="M18.608,31.049h-3.832c-3.275,0-5.931,2.654-5.931,5.93
				s2.656,5.932,5.931,5.932h3.832c3.276,0,5.931-2.656,5.931-5.932S21.884,31.049,18.608,31.049z M16.602,30.406
				c2.519,0,4.561-2.041,4.561-4.559c0-2.52-2.042-4.563-4.561-4.563c-2.519,0-4.561,2.043-4.561,4.563
				C12.041,28.365,14.083,30.406,16.602,30.406z"/>
		</g>
		<g id="User_10_">
			<path fill-rule="evenodd" clip-rule="evenodd" fill="#23A8E0" d="M64.598,15.941h-2.65c-2.267,0-4.104,1.836-4.104,4.102
				s1.837,4.104,4.104,4.104h2.65c2.266,0,4.103-1.838,4.103-4.104S66.863,15.941,64.598,15.941z M63.209,15.498
				c1.742,0,3.154-1.412,3.154-3.154s-1.412-3.156-3.154-3.156s-3.154,1.414-3.154,3.156S61.467,15.498,63.209,15.498z"/>
		</g>
		<g id="User_5_">
			<path fill-rule="evenodd" clip-rule="evenodd" fill="#23A8E0" d="M23.9,68.951h-3.832c-3.275,0-5.931,2.654-5.931,5.93
				c0,3.277,2.656,5.932,5.931,5.932H23.9c3.276,0,5.932-2.654,5.932-5.932C29.832,71.605,27.176,68.951,23.9,68.951z
				 M21.894,68.311c2.519,0,4.561-2.043,4.561-4.561c0-2.52-2.042-4.561-4.561-4.561c-2.519,0-4.561,2.041-4.561,4.561
				C17.333,66.268,19.375,68.311,21.894,68.311z"/>
		</g>
		<g id="User_4_">
			<path fill-rule="evenodd" clip-rule="evenodd" fill="#E9504B" d="M53.652,47.392h-4.904c-4.192,0-7.592,3.398-7.592,7.591
				s3.399,7.592,7.592,7.592h4.904c4.193,0,7.592-3.399,7.592-7.592S57.846,47.392,53.652,47.392z M51.084,46.571
				c3.224,0,5.837-2.613,5.837-5.836c0-3.226-2.613-5.839-5.837-5.839c-3.225,0-5.837,2.613-5.837,5.839
				C45.247,43.958,47.859,46.571,51.084,46.571z"/>
		</g>
		<path fill-rule="evenodd" clip-rule="evenodd" fill="#E9504B" d="M73.744,46.789c-0.393-4.918-2.367-9.382-5.403-12.905
			l1.628-1.629l-2.213-2.211l-1.619,1.619c-3.512-3.09-7.984-5.109-12.922-5.535V18.58h-3.762v7.547
			c-4.964,0.396-9.464,2.404-13,5.492l-1.734-1.736l-2.213,2.215l1.734,1.736c-3.063,3.529-5.059,8.012-5.454,12.955h-7.542v3.761
			h7.554c0.422,4.938,2.443,9.409,5.529,12.922l-1.822,1.823l2.213,2.21l1.83-1.829c3.521,3.038,7.986,5.013,12.904,5.406v7.811
			h3.762v-7.815c4.891-0.42,9.326-2.407,12.824-5.444l1.955,1.955l2.212-2.215l-1.951-1.95c3.059-3.508,5.062-7.961,5.483-12.873
			h7.416v-3.761H73.744z M68.732,48.736c0,0.611-0.031,1.218-0.094,1.813h1.333c-0.909,8.83-7.927,15.844-16.757,16.752v-1.157
			c-0.662,0.075-1.333,0.124-2.015,0.124c-0.59,0-1.173-0.032-1.747-0.088v1.14c-8.893-0.85-15.979-7.895-16.891-16.771h1.199
			c-0.061-0.596-0.094-1.202-0.094-1.813c0-0.659,0.043-1.308,0.115-1.947h-1.236c0.855-8.937,7.969-16.045,16.906-16.9v1.405
			c0.574-0.058,1.157-0.09,1.747-0.09c0.682,0,1.353,0.049,2.015,0.124v-1.425c8.873,0.914,15.916,7.991,16.768,16.886h-1.364
			C68.689,47.429,68.732,48.077,68.732,48.736z"/>
	</g>
</g>
<g id="Ebene_6" display="none">
	<g display="inline">
		<g id="Zoom_1_">
			<path fill-rule="evenodd" clip-rule="evenodd" fill="#23A8E0" d="M57.128,53.264c3.813-4.646,6.104-10.593,6.104-17.074
				c0-14.881-12.063-26.943-26.945-26.943c-14.88,0-26.942,12.063-26.942,26.943c0,14.885,12.062,26.947,26.942,26.947
				c6.849,0,13.08-2.576,17.832-6.783L77.604,79.84l3.05-3.051L57.128,53.264z M36.286,60.441
				c-13.391,0-24.248-10.857-24.248-24.252c0-13.393,10.857-24.248,24.248-24.248c13.395,0,24.25,10.855,24.25,24.248
				C60.536,49.584,49.681,60.441,36.286,60.441z"/>
		</g>
		<g id="User_13_">
			<path fill-rule="evenodd" clip-rule="evenodd" fill="#E9504B" d="M39.306,34.427h-6.083c-5.2,0-9.416,4.215-9.416,9.415
				c0,5.201,4.216,9.418,9.416,9.418h6.083c5.201,0,9.416-4.217,9.416-9.418C48.722,38.642,44.507,34.427,39.306,34.427z
				 M36.12,33.409c3.998,0,7.24-3.241,7.24-7.239c0-3.999-3.242-7.24-7.24-7.24s-7.24,3.241-7.24,7.24
				C28.88,30.168,32.122,33.409,36.12,33.409z"/>
		</g>
	</g>
</g>
<g id="Ebene_7" display="none">
	<g display="inline">
		<polygon fill-rule="evenodd" clip-rule="evenodd" fill="#23A8E0" points="79.839,69.883 69.883,59.93 69.883,67.395 
			22.603,67.395 22.603,20.116 30.068,20.116 20.114,10.161 10.16,20.116 17.626,20.116 17.626,72.371 69.883,72.371 69.883,79.84 
					"/>
		<path fill-rule="evenodd" clip-rule="evenodd" fill="#E9504B" d="M29.841,45.02c-2.641,0.123-4.75,2.287-4.75,4.957
			c0,2.746,2.229,4.977,4.978,4.977c2.748,0,4.977-2.23,4.977-4.977c0-0.982-0.294-1.891-0.785-2.664l5.813-11.627l5.765,11.53
			c-0.528,0.791-0.839,1.74-0.839,2.762c0,2.746,2.229,4.977,4.978,4.977c2.747,0,4.977-2.23,4.977-4.977
			c0-0.76-0.185-1.473-0.489-2.117l15.194-22.789c0.075,0.002,0.147,0.021,0.225,0.021c2.749,0,4.977-2.227,4.977-4.977
			c0-2.748-2.228-4.977-4.977-4.977s-4.977,2.229-4.977,4.977c0,0.817,0.216,1.577,0.565,2.26L50.364,45.039
			c-0.018-0.003-0.035-0.005-0.053-0.007l-6.125-12.25c0.511-0.781,0.813-1.71,0.813-2.713c0-2.748-2.229-4.977-4.978-4.977
			c-2.747,0-4.977,2.229-4.977,4.977c0,1.043,0.323,2.008,0.87,2.807L29.841,45.02z"/>
	</g>
</g>
<g id="Ebene_8" display="none">
	<g id="User_14_" display="inline">
		<path fill-rule="evenodd" clip-rule="evenodd" fill="#E9504B" d="M49.357,42.612h-8.715c-7.449,0-13.49,6.037-13.49,13.488
			s6.041,13.488,13.49,13.488h8.715c7.451,0,13.49-6.037,13.49-13.488S56.809,42.612,49.357,42.612z M44.793,41.153
			c5.729,0,10.373-4.643,10.373-10.37c0-5.729-4.645-10.372-10.373-10.372s-10.372,4.643-10.372,10.372
			C34.421,36.511,39.064,41.153,44.793,41.153z"/>
	</g>
</g>
<g id="persoehnlicher_x5F_Berater" display="none">
	<g display="inline">
		<path fill="#23A8E0" d="M74.447,63.703c-1.056,0-2.461-0.927-5.277-2.876c-1.139-0.788-2.803-1.94-3.517-2.265
			c-2.199,0.805-4.513,1.352-6.884,1.627c-0.79,0.093-1.509-0.476-1.602-1.268c-0.092-0.793,0.477-1.51,1.268-1.603
			c2.264-0.263,4.467-0.798,6.551-1.591c1.164-0.441,2.406,0.354,5.828,2.723c0.279,0.193,0.588,0.407,0.907,0.626
			c-0.035-0.063-0.07-0.124-0.104-0.184c-0.541-0.947-1.1-1.927-1.474-2.718c-0.235-0.496-0.382-0.885-0.462-1.219
			c-0.291-1.219,0.354-1.815,0.645-2.016c5.749-3.95,9.047-9.817,9.047-16.096c0-11.395-10.877-20.665-24.246-20.665
			c-10.645,0-20.201,6.071-23.24,14.762c-0.263,0.753-1.087,1.15-1.84,0.887c-0.754-0.263-1.15-1.087-0.887-1.84
			c1.662-4.755,5.112-9.021,9.717-12.013c4.719-3.065,10.338-4.686,16.25-4.686c7.208,0,13.994,2.424,19.108,6.826
			c5.177,4.454,8.026,10.396,8.026,16.729c0,6.972-3.477,13.473-9.572,17.961c0.326,0.708,0.972,1.84,1.438,2.654
			c1.668,2.924,2.227,4.035,1.933,5.041c-0.128,0.436-0.415,0.79-0.81,0.998C74.994,63.635,74.733,63.703,74.447,63.703z"/>
		<path fill="#E9504B" d="M15.5,76.313c-0.27,0-0.526-0.05-0.764-0.149c-0.482-0.203-0.852-0.588-1.035-1.086
			c-0.41-1.106,0.152-2.316,1.361-4.73c0.283-0.564,0.697-1.392,0.945-1.982c-2.414-1.598-4.426-3.59-5.855-5.805
			c-1.684-2.607-2.572-5.549-2.572-8.505c0-5.044,2.482-9.76,6.993-13.279c4.391-3.426,10.204-5.313,16.372-5.313
			c6.167,0,11.981,1.887,16.372,5.313c4.51,3.52,6.993,8.235,6.993,13.279s-2.483,9.761-6.993,13.279
			c-4.391,3.427-10.205,5.313-16.372,5.313c-2.492,0-4.941-0.309-7.285-0.918c-0.65,0.294-2.129,1.29-3.141,1.972
			C17.703,75.597,16.541,76.313,15.5,76.313z M30.945,38.73c-11.083,0-20.1,6.875-20.1,15.326c0,4.722,2.809,9.114,7.705,12.052
			c0.25,0.15,1.057,0.742,0.906,2.031c-0.039,0.35-0.146,0.74-0.334,1.229c-0.225,0.58-0.548,1.254-0.885,1.932
			c0.159-0.107,0.313-0.211,0.457-0.307c2.776-1.871,3.922-2.577,4.945-2.577c0.182,0,0.359,0.023,0.528,0.069
			c2.17,0.596,4.45,0.897,6.776,0.897c11.083,0,20.1-6.875,20.1-15.326C51.045,45.605,42.028,38.73,30.945,38.73z"/>
	</g>
</g>
<g id="Ebene_2" display="none">
	<g display="inline">
		<path fill-rule="evenodd" clip-rule="evenodd" fill="#23A8E0" d="M28.505,27.371v-7.873h33.138v7.873h2.953V13.769
			c0-3.671-2.974-6.647-6.645-6.647H31.889c-3.671,0-6.645,2.977-6.645,6.647v13.603H28.505z M41.66,12.867h6.727
			c0.429,0,0.781,0.35,0.781,0.78c0,0.428-0.353,0.775-0.781,0.775H41.66c-0.431,0-0.778-0.348-0.778-0.775
			C40.882,13.217,41.229,12.867,41.66,12.867z"/>
		<path fill-rule="evenodd" clip-rule="evenodd" fill="#23A8E0" d="M61.643,51.405V69.21H28.505V51.405h-3.261v23.638
			c0,3.666,2.974,6.645,6.645,6.645h26.063c3.671,0,6.645-2.979,6.645-6.645V51.405H61.643z M44.972,79.461
			c-2.288,0-4.142-1.856-4.142-4.144c0-2.284,1.854-4.142,4.142-4.142c2.287,0,4.145,1.857,4.145,4.142
			C49.116,77.604,47.259,79.461,44.972,79.461z"/>
	</g>
	<g display="inline">
		<path fill="#E9504B" d="M32.751,46.605h-5.149c-2.561,0-4.643-2.082-4.643-4.643v-5.15c0-2.561,2.082-4.645,4.643-4.645h5.149
			c2.561,0,4.644,2.084,4.644,4.645v5.15C37.395,44.523,35.312,46.605,32.751,46.605z M27.602,34.59
			c-1.226,0-2.221,0.998-2.221,2.223v5.15c0,1.225,0.995,2.221,2.221,2.221h5.149c1.226,0,2.222-0.996,2.222-2.221v-5.15
			c0-1.225-0.996-2.223-2.222-2.223H27.602z"/>
		<path fill="#E9504B" d="M44.919,58.289c0,0-0.002,0-0.004,0c-0.444-0.002-0.854-0.248-1.064-0.642l-2.691-5.032H20.889
			c-2.561,0-4.645-2.083-4.645-4.646V30.805c0-2.562,2.084-4.645,4.645-4.645H68.95c2.562,0,4.646,2.083,4.646,4.645V47.97
			c0,2.563-2.084,4.646-4.646,4.646H48.726l-2.743,5.041C45.771,58.047,45.363,58.289,44.919,58.289z M20.889,28.582
			c-1.226,0-2.223,0.998-2.223,2.223V47.97c0,1.226,0.997,2.224,2.223,2.224h20.997c0.446,0,0.857,0.246,1.068,0.641l1.976,3.692
			l2.014-3.7c0.212-0.391,0.62-0.633,1.063-0.633H68.95c1.227,0,2.224-0.998,2.224-2.224V30.805c0-1.225-0.997-2.223-2.224-2.223
			H20.889z"/>
		<path fill="#E9504B" d="M64.596,37.85h-21.8c-0.67,0-1.212-0.541-1.212-1.211c0-0.668,0.542-1.211,1.212-1.211h21.8
			c0.669,0,1.21,0.543,1.21,1.211C65.806,37.309,65.265,37.85,64.596,37.85z"/>
		<path fill="#E9504B" d="M64.596,43.148h-21.8c-0.67,0-1.212-0.542-1.212-1.211c0-0.668,0.542-1.211,1.212-1.211h21.8
			c0.669,0,1.21,0.543,1.21,1.211C65.806,42.606,65.265,43.148,64.596,43.148z"/>
	</g>
</g>
<g id="Projektgesuche_x5F_3" display="none">
	<g display="inline">
		<g>
			<path fill="#23A8E0" d="M29.018,55.613h-5.421c-2.694,0-4.886-2.192-4.886-4.885v-5.42c0-2.693,2.191-4.886,4.886-4.886h5.421
				c2.695,0,4.885,2.192,4.885,4.886v5.42C33.902,53.421,31.713,55.613,29.018,55.613z M23.597,42.972
				c-1.29,0-2.338,1.048-2.338,2.337v5.42c0,1.286,1.048,2.334,2.338,2.334h5.421c1.287,0,2.338-1.048,2.338-2.334v-5.42
				c0-1.289-1.051-2.337-2.338-2.337H23.597z"/>
			<path fill="#23A8E0" d="M67.108,61.936H16.533c-2.697,0-4.889-2.189-4.889-4.886V38.982c0-2.691,2.191-4.885,4.889-4.885h50.575
				c2.696,0,4.889,2.193,4.889,4.885V57.05C71.997,59.746,69.805,61.936,67.108,61.936z M16.533,36.65
				c-1.289,0-2.342,1.047-2.342,2.332V57.05c0,1.29,1.053,2.338,2.342,2.338h50.575c1.29,0,2.34-1.048,2.34-2.338V38.982
				c0-1.285-1.05-2.332-2.34-2.332H16.533z"/>
			<path fill="#23A8E0" d="M62.526,46.402H39.584c-0.701,0-1.273-0.57-1.273-1.277c0-0.701,0.572-1.275,1.273-1.275h22.942
				c0.703,0,1.273,0.574,1.273,1.275C63.8,45.832,63.229,46.402,62.526,46.402z"/>
			<path fill="#23A8E0" d="M62.526,51.975H39.584c-0.701,0-1.273-0.566-1.273-1.271c0-0.707,0.572-1.274,1.273-1.274h22.942
				c0.703,0,1.273,0.567,1.273,1.274C63.8,51.408,63.229,51.975,62.526,51.975z"/>
		</g>
		<circle fill="#E9504B" cx="69.253" cy="31.139" r="12.296"/>
		<text transform="matrix(1 0 0 1 64.1484 38.5225)" fill="#FFFFFF" font-family="'Ubuntu-Bold'" font-size="21.2454">3</text>
	</g>
</g>
<g id="Kontaktqualifizierung_x5F_Kick-Off-Workshop" display="none">
	<g id="User_3_" display="inline">
		<path fill="#23A8E0" d="M57.535,40.33h-2v-5.643c0-4.116-3.349-7.464-7.464-7.464h-5.471c-4.116,0-7.464,3.348-7.464,7.464v5.643
			h-2v-5.643c0-4.825,3.63-8.819,8.303-9.393c-2.236-1.301-3.742-3.725-3.742-6.493c0-4.141,3.368-7.51,7.508-7.51
			c4.141,0,7.51,3.369,7.51,7.51c0,2.751-1.488,5.161-3.702,6.468c4.778,0.475,8.522,4.517,8.522,9.417V40.33z M45.205,13.292
			c-3.037,0-5.508,2.472-5.508,5.51c0,3.037,2.471,5.507,5.508,5.507c3.038,0,5.51-2.47,5.51-5.507
			C50.715,15.764,48.243,13.292,45.205,13.292z"/>
	</g>
	<path display="inline" fill="#23A8E0" d="M64.985,48.836H25.737c-0.552,0-1-0.447-1-1s0.448-1,1-1h39.248c0.553,0,1,0.447,1,1
		S65.538,48.836,64.985,48.836z"/>
	<path display="inline" fill="#E9504B" d="M36.409,54.128C35.294,51.26,26,50.485,21,50.276v-6.377c1,1.764,1.944,3.314,3.561,3.941
		c0.099,0.038,0.168,0.061,0.274,0.066c1.292,0.068,12.647,0.674,13.735,0.619c0.313-0.016,1.076-0.165,1.457-1.227
		c0.409-1.138,0.301-3.728-0.587-4.536c-0.703-0.639-1.894-0.75-4.263-0.973c-0.493-0.046-1.034-0.097-1.622-0.158
		c-2.588-0.268-5.423-0.943-5.996-1.083c-0.993-1.245-3.238-9.313-3.704-11.633c-0.326-1.636-2.155-2.367-3.179-2.652
		c3.76-0.406,6.698-3.596,6.698-7.461c0-4.141-3.369-7.51-7.51-7.51c-4.14,0-7.508,3.369-7.508,7.51
		c0,3.423,2.307,6.313,5.445,7.212c-2.802,0.146-6.23,1.341-6.899,5.249C8.294,46.46,8.11,55.483,10.356,58.084
		c2.859,3.312,14.655,3.139,18.108,3.011l4.708,17.335c0.121,0.445,0.524,0.738,0.964,0.738c0.086,0,0.175-0.011,0.263-0.035
		c0.533-0.145,0.848-0.694,0.703-1.227L30.185,59.8c-0.124-0.454-0.559-0.774-1.016-0.737c-5.675,0.289-15.39-0.075-17.299-2.285
		c-1.733-2.007-1.358-11.418,1.003-25.177c0.749-4.376,6.59-3.551,6.819-3.517c0.851,0.15,2.088,0.659,2.201,1.223
		c0.025,0.127,2.589,12.367,5.07,13.146l-0.002,0.008c0.136,0.035,3.356,0.847,6.385,1.16c0.595,0.062,1.142,0.113,1.64,0.16
		c1.321,0.124,2.685,0.252,3.056,0.435c0.198,0.449,0.288,1.758,0.131,2.313c-1.6-0.021-8.44-0.362-13.093-0.61
		c-2.711-1.233-3.966-7.353-4.223-9.645c-0.059-0.528-0.453-0.916-0.981-0.887C19.347,35.415,19,35.853,19,36.384V51.24
		c0,0.54,0.36,0.982,0.9,0.999c7.353,0.236,14.163,1.458,14.611,2.613c0.859,2.208,3.486,17.03,4.432,22.556
		c0.093,0.545,0.601,0.911,1.146,0.816c0.544-0.093,0.94-0.609,0.847-1.154C40.794,76.251,37.517,56.976,36.409,54.128z
		 M14.356,18.802c0-3.038,2.471-5.51,5.508-5.51c3.038,0,5.51,2.472,5.51,5.51c0,3.037-2.472,5.507-5.51,5.507
		C16.827,24.309,14.356,21.838,14.356,18.802z"/>
	<path display="inline" fill="#E9504B" d="M78.938,31.263c-0.62-3.623-3.609-4.912-6.282-5.197c3.242-0.831,5.648-3.768,5.648-7.264
		c0-4.141-3.369-7.51-7.51-7.51c-4.14,0-7.508,3.369-7.508,7.51c0,3.686,2.673,6.753,6.182,7.382
		c-0.89,0.208-3.118,0.905-3.482,2.729c-0.466,2.322-2.71,10.39-3.703,11.634c-0.573,0.14-3.408,0.815-5.995,1.083
		c-0.589,0.061-1.129,0.112-1.621,0.158c-2.369,0.223-3.559,0.334-4.262,0.973c-0.889,0.808-0.992,3.398-0.584,4.536
		c0.382,1.062,1.153,1.211,1.467,1.227c1.105,0.045,12.46-0.551,13.752-0.619c0.105-0.006,0.221-0.028,0.32-0.066
		C66.977,47.213,68,45.663,69,43.899v6.377c-5,0.209-14.375,0.982-15.488,3.852c-1.109,2.848-4.423,22.123-4.563,22.942
		c-0.094,0.545,0.27,1.062,0.813,1.154c0.553,0.095,1.062-0.272,1.153-0.816c0.946-5.525,3.589-20.348,4.447-22.556
		c0.449-1.155,7.305-2.376,14.657-2.613C70.56,52.223,71,51.78,71,51.24V36.384c0-0.531-0.428-0.969-0.957-0.999
		c-0.563-0.031-0.997,0.36-1.056,0.888c-0.255,2.292-1.508,8.41-4.225,9.645c-4.654,0.248-11.496,0.589-13.095,0.61
		c-0.156-0.552-0.069-1.854,0.128-2.308c0.394-0.189,1.746-0.317,3.057-0.44c0.498-0.047,1.045-0.099,1.64-0.16
		c3.029-0.313,6.25-1.125,6.386-1.16l-0.002-0.008c2.481-0.778,5.045-13.018,5.07-13.146c0.112-0.563,1.351-1.072,2.182-1.219
		c0.246-0.039,6.085-0.882,6.839,3.514c2.361,13.758,2.736,23.17,1.003,25.177c-1.908,2.209-11.624,2.576-17.299,2.285
		c-0.463-0.032-0.894,0.284-1.016,0.737l-4.917,18.106c-0.145,0.532,0.17,1.082,0.703,1.227c0.088,0.024,0.176,0.035,0.263,0.035
		c0.439,0,0.843-0.293,0.964-0.738l4.708-17.335c3.453,0.127,15.248,0.301,18.107-3.011C81.729,55.483,81.546,46.46,78.938,31.263z
		 M65.286,18.802c0-3.038,2.471-5.51,5.508-5.51c3.038,0,5.51,2.472,5.51,5.51c0,3.037-2.472,5.507-5.51,5.507
		C67.757,24.309,65.286,21.838,65.286,18.802z"/>
</g>
<g id="Wirtschaft" display="none">
	<g display="inline">
		<polygon fill="#23A8E0" points="25.668,78.64 15.921,78.64 15.921,49.005 25.668,42.645 		"/>
		<rect x="29.814" y="41.22" fill="#23A8E0" width="9.747" height="37.42"/>
		<polygon fill="#23A8E0" points="53.453,78.64 43.706,78.64 43.706,41.22 53.453,34.741 		"/>
		<rect x="57.6" y="34.741" fill="#23A8E0" width="9.746" height="43.898"/>
		<polygon fill="#E9504B" points="87.736,11.361 63.279,17.915 69.467,24.101 61.703,31.812 52.027,26.922 43.743,39.945 
			24.494,34.08 2.697,56.687 8.438,62.224 26.843,43.134 47.219,49.341 54.879,37.298 63.242,41.525 75.105,29.741 81.184,35.818 		
			"/>
	</g>
</g>
<g id="Recht" display="none">
	<g display="inline">
		<path fill="#23A8E0" d="M75.84,38.17l2.934-4.43L50.723,15.163c0.004-0.089,0.014-0.179,0.014-0.27
			c0-3.046-2.471-5.516-5.517-5.516s-5.516,2.47-5.516,5.516c0,0.091,0.01,0.181,0.014,0.27L11.668,33.741l2.933,4.43l26.993-17.877
			v49.54h-8.87l-4.917,10.791h34.562l-4.916-10.791h-8.607v-49.54L75.84,38.17z"/>
		<path fill="#E9504B" d="M26.673,50.634c0-0.162-0.033-0.326-0.134-0.473L15.363,34.25c-0.028-0.04-0.069-0.065-0.103-0.099
			c-0.034-0.032-0.057-0.073-0.096-0.1c-0.007-0.006-0.014-0.006-0.021-0.011c-0.052-0.034-0.109-0.052-0.167-0.072
			c-0.043-0.017-0.084-0.041-0.128-0.05c-0.052-0.009-0.104-0.002-0.157-0.002c-0.052,0-0.104-0.007-0.155,0.002
			c-0.045,0.009-0.086,0.033-0.13,0.05c-0.057,0.021-0.114,0.038-0.165,0.072c-0.006,0.005-0.015,0.005-0.021,0.011
			c-0.04,0.026-0.064,0.068-0.097,0.101c-0.033,0.034-0.074,0.058-0.102,0.098L2.845,50.161c-0.101,0.146-0.135,0.311-0.133,0.473
			H2.697c0,8.148,5.37,14.754,11.995,14.754c6.626,0,11.996-6.605,11.996-14.754H26.673z M4.518,50.634l10.174-14.486l10.175,14.486
			H4.518z"/>
		<path fill="#E9504B" d="M87.723,50.634c0-0.162-0.033-0.326-0.135-0.473L76.412,34.25c-0.029-0.04-0.07-0.065-0.104-0.099
			c-0.033-0.032-0.057-0.073-0.096-0.1c-0.006-0.006-0.014-0.006-0.021-0.011c-0.051-0.034-0.109-0.052-0.166-0.072
			c-0.043-0.017-0.084-0.041-0.129-0.05c-0.051-0.009-0.104-0.002-0.156-0.002c-0.051,0-0.104-0.007-0.156,0.002
			c-0.043,0.009-0.084,0.033-0.129,0.05c-0.057,0.021-0.113,0.038-0.164,0.072c-0.008,0.005-0.016,0.005-0.021,0.011
			c-0.039,0.026-0.064,0.068-0.098,0.101c-0.033,0.034-0.074,0.058-0.102,0.098L63.895,50.161c-0.102,0.146-0.135,0.311-0.135,0.473
			h-0.014c0,8.148,5.369,14.754,11.994,14.754c6.627,0,11.996-6.605,11.996-14.754H87.723z M65.566,50.634L75.74,36.148
			l10.176,14.486H65.566z"/>
	</g>
</g>
<g id="Science" display="none">
	<g display="inline">
		<path fill="#23A8E0" d="M73.768,44.741c1.267-1.088,2.451-2.179,3.536-3.27c6.316-6.334,8.711-11.99,6.745-15.925
			c-1.05-2.101-3.817-4.604-11.044-4.604c-4.053,0-8.936,0.795-14.24,2.251C56.351,11.165,51.839,2.05,45.43,2.05
			c-6.39,0-10.894,9.062-13.313,21.036c-5.159-1.39-9.904-2.144-13.859-2.144c-7.228,0-9.994,2.503-11.045,4.604
			c-1.967,3.935,0.428,9.591,6.744,15.925c1.086,1.091,2.27,2.182,3.537,3.27c-8.1,6.895-12.873,14.025-10.281,19.211
			c1.051,2.102,3.817,4.604,11.045,4.604c3.93,0,8.641-0.742,13.764-2.115c2.395,12.209,6.935,21.51,13.409,21.51
			c6.493,0,11.042-9.354,13.431-21.617c5.269,1.438,10.115,2.221,14.145,2.223l0,0c7.227,0,9.994-2.502,11.044-4.604
			C86.641,58.767,81.866,51.636,73.768,44.741z M73.005,23.892c4.463,0,7.449,1.055,8.407,2.972c1.316,2.632-1,7.316-6.195,12.528
			c-1.146,1.148-2.409,2.304-3.768,3.452c-3.318-2.611-7.066-5.156-11.024-7.516c-0.253-3.162-0.629-6.266-1.125-9.235
			C64.429,24.668,69.131,23.892,73.005,23.892z M51.188,55.87c-1.855,0.926-3.712,1.789-5.559,2.6
			c-1.846-0.811-3.703-1.674-5.556-2.6c-2.369-1.184-4.664-2.426-6.865-3.709c-0.135-2.303-0.211-4.688-0.211-7.16
			c0-2.657,0.087-5.218,0.244-7.68c2.152-1.253,4.428-2.491,6.831-3.691c1.854-0.929,3.711-1.791,5.557-2.601
			c1.847,0.81,3.703,1.672,5.559,2.601c2.249,1.123,4.385,2.28,6.415,3.45c0.167,2.536,0.259,5.178,0.259,7.921
			c0,2.557-0.082,5.023-0.227,7.4C55.562,53.599,53.409,54.759,51.188,55.87z M57.366,55.94c-0.216,2.324-0.498,4.543-0.836,6.645
			c-2.338-0.732-4.742-1.584-7.188-2.559c1.056-0.49,2.11-0.992,3.165-1.52C54.163,57.679,55.783,56.819,57.366,55.94z
			 M41.92,60.026c-2.581,1.027-5.116,1.918-7.573,2.678c-0.357-2.207-0.653-4.543-0.876-6.998c1.716,0.961,3.479,1.896,5.284,2.801
			C39.809,59.034,40.865,59.536,41.92,60.026z M30.169,50.325c-2.883-1.807-5.572-3.672-8.004-5.566
			c2.376-1.857,5.061-3.738,8.025-5.595c-0.094,1.944-0.141,3.896-0.141,5.837C30.05,46.771,30.091,48.55,30.169,50.325z
			 M33.523,33.77c0.232-2.44,0.535-4.763,0.902-6.951c2.434,0.754,4.941,1.638,7.494,2.653c-1.054,0.491-2.11,0.993-3.165,1.521
			C36.994,31.873,35.244,32.801,33.523,33.77z M49.342,29.472c2.42-0.963,4.8-1.806,7.112-2.536c0.347,2.084,0.635,4.289,0.86,6.598
			c-1.585-0.882-3.19-1.734-4.808-2.541C51.452,30.465,50.397,29.963,49.342,29.472z M60.655,38.903
			c3.131,1.943,5.953,3.911,8.44,5.856c-2.546,1.984-5.376,3.938-8.416,5.82c0.085-1.857,0.13-3.723,0.13-5.578
			C60.81,42.972,60.757,40.933,60.655,38.903z M45.43,4.997c3.905,0,8.106,7.255,10.487,19.029c-3.326,1.031-6.784,2.3-10.287,3.79
			c-3.635-1.546-7.221-2.854-10.664-3.905C37.351,12.203,41.537,4.997,45.43,4.997z M16.044,39.392
			c-5.195-5.212-7.512-9.896-6.195-12.528c0.959-1.917,3.943-2.972,8.408-2.972c3.776,0,8.34,0.736,13.32,2.094
			c-0.518,3.079-0.904,6.307-1.16,9.591c-3.805,2.291-7.404,4.748-10.605,7.268C18.454,41.696,17.191,40.541,16.044,39.392z
			 M18.257,65.608c-4.465,0-7.449-1.055-8.408-2.973c-1.595-3.189,2.113-9.305,9.978-15.975c3.138,2.486,6.693,4.928,10.554,7.246
			c0.242,3.293,0.615,6.531,1.12,9.627C26.55,64.88,22.015,65.608,18.257,65.608z M45.43,85.005c-3.944,0-8.188-7.402-10.557-19.387
			c3.471-1.057,7.089-2.377,10.757-3.936c3.536,1.504,7.023,2.781,10.38,3.818C53.646,77.556,49.388,85.005,45.43,85.005z
			 M81.412,62.636c-0.958,1.918-3.942,2.973-8.407,2.973l0,0c-3.854,0-8.529-0.771-13.628-2.184c0.482-2.984,0.845-6.1,1.085-9.266
			c4.021-2.393,7.723-4.922,10.973-7.498C79.298,53.331,83.007,59.446,81.412,62.636z"/>
		<path fill="#E9504B" d="M52.921,45.001c0,4.135-3.355,7.492-7.491,7.492c-4.137,0-7.491-3.357-7.491-7.492
			c0-4.138,3.354-7.493,7.491-7.493C49.565,37.508,52.921,40.863,52.921,45.001z"/>
		<circle fill="#E9504B" cx="19.089" cy="58.079" r="2.61"/>
		<circle fill="#E9504B" cx="45.43" cy="14.699" r="2.61"/>
		<circle fill="#E9504B" cx="85.126" cy="44.601" r="2.609"/>
		<circle fill="#E9504B" cx="5.306" cy="44.601" r="2.609"/>
	</g>
</g>
<g id="IT_Maths" display="none">
	<g display="inline">
		<polygon fill="#E9504B" points="68.383,44.783 68.383,42.433 62.3,42.433 61.125,42.433 47.379,42.433 47.379,44.783 
			51.842,44.783 51.842,62.674 54.19,62.674 54.19,44.783 61.125,44.783 61.125,65.338 68.268,65.338 68.268,62.988 63.475,62.988 
			63.475,44.783 		"/>
		<path fill="#23A8E0" d="M27.559,52.041c-7.362,0-13.325-5.961-13.325-13.324c0-6.829,5.097-12.525,11.858-13.226l3.564-0.367
			l1.666-3.164c3.166-6.094,9.361-9.894,16.224-9.894c8.728,0,16.256,6.194,17.958,14.757L66.5,31.82l5.1,0.369
			c5.191,0.333,9.259,4.696,9.259,9.859c0,5.499-4.496,9.993-9.993,9.993v6.662c9.193,0,16.654-7.463,16.654-16.655
			c0-8.798-6.828-15.925-15.491-16.524c-2.264-11.492-12.354-20.12-24.482-20.12c-9.628,0-17.989,5.467-22.152,13.459
			C15.365,19.926,7.57,28.423,7.57,38.717c0,11.027,8.961,19.986,19.988,19.986V52.041z"/>
		<path fill="#23A8E0" d="M71.123,47.523c-2.158,0-3.916-1.756-3.916-3.915c0-2.159,1.758-3.917,3.916-3.917
			s3.916,1.758,3.916,3.917C75.039,45.767,73.281,47.523,71.123,47.523z M71.123,42.042c-0.863,0-1.566,0.702-1.566,1.567
			c0,0.863,0.703,1.565,1.566,1.565s1.566-0.702,1.566-1.565C72.689,42.744,71.986,42.042,71.123,42.042z"/>
		<path fill="#23A8E0" d="M58.803,27.29c-1.75,0-3.234,1.154-3.734,2.74h-6.674L40.874,45.17v27.998H7.57v-8.914
			c1.588-0.5,2.742-1.984,2.742-3.734c0-2.158-1.758-3.916-3.916-3.916c-2.16,0-3.916,1.758-3.916,3.916
			c0,1.75,1.154,3.234,2.742,3.734v11.264h38V45.722l6.629-13.343h5.217c0.5,1.586,1.984,2.741,3.734,2.741
			c2.158,0,3.916-1.758,3.916-3.915C62.719,29.045,60.961,27.29,58.803,27.29z M6.396,58.953c0.863,0,1.566,0.703,1.566,1.566
			c0,0.865-0.703,1.566-1.566,1.566S4.83,61.385,4.83,60.52C4.83,59.656,5.533,58.953,6.396,58.953z M58.803,32.771
			c-0.863,0-1.566-0.702-1.566-1.565c0-0.865,0.703-1.567,1.566-1.567s1.566,0.702,1.566,1.567
			C60.369,32.069,59.666,32.771,58.803,32.771z"/>
		<path fill="#E9504B" d="M29.506,35.381c0.267-0.53,0.42-1.126,0.42-1.758c0-2.159-1.756-3.916-3.914-3.916
			c-2.159,0-3.916,1.757-3.916,3.916c0,2.158,1.757,3.915,3.916,3.915c0.672,0,1.305-0.17,1.857-0.47l5.874,6.037v22.232h-16.64
			v2.35h18.989V42.152L29.506,35.381z M24.445,33.624c0-0.864,0.703-1.566,1.566-1.566s1.565,0.702,1.565,1.566
			c0,0.863-0.702,1.565-1.565,1.565S24.445,34.487,24.445,33.624z"/>
		<path fill="#E9504B" d="M79.231,68.088H56.75c-0.5-1.588-1.984-2.742-3.734-2.742c-2.16,0-3.916,1.758-3.916,3.916
			c0,1.75,1.154,3.234,2.742,3.736v6.836H17.104v2.35H54.19v-9.186c1.216-0.385,2.177-1.346,2.56-2.561h22.481V68.088z
			 M53.016,70.828c-0.863,0-1.566-0.703-1.566-1.566s0.703-1.566,1.566-1.566s1.566,0.703,1.566,1.566S53.879,70.828,53.016,70.828z
			"/>
	</g>
</g>
<g id="Medizintechnik">
	<g>
		<g>
			<path fill="#23A8E0" d="M7.232,44.999l16.373,6.734l-1.198,3.554L2.48,46.845v-3.689l19.927-8.442l1.198,3.552L7.232,44.999z"/>
		</g>
		<g>
			<path fill="#23A8E0" d="M66.395,38.265l1.198-3.552l19.927,8.442v3.689l-19.927,8.442l-1.198-3.554l16.373-6.734L66.395,38.265z"
				/>
		</g>
		<g>
			<path fill="#23A8E0" d="M55.988,60.422h-3.027l10.801-30.844h2.965L55.988,60.422z"/>
		</g>
		<path fill="#E9504B" d="M53.422,44.295c0-7.439-5.445-13.673-8.888-16.868c3.442-3.198,8.888-9.43,8.888-16.87h-5.67
			c0,5.676-4.946,10.832-7.617,13.202c-2.67-2.37-7.615-7.529-7.615-13.202h-5.67c0,7.44,5.445,13.672,8.887,16.87
			c-3.441,3.195-8.887,9.429-8.887,16.868c0,8.029,6.345,14.654,9.667,17.574c-3.322,2.918-9.667,9.543-9.667,17.574h5.67
			c0-5.683,4.962-10.849,7.629-13.215c3.045,2.701,7.604,7.888,7.604,13.215h5.67c0-8.031-6.347-14.656-9.666-17.574
			C47.075,58.949,53.422,52.324,53.422,44.295z M32.52,44.295c0-5.674,4.946-10.832,7.615-13.203
			c2.673,2.374,7.617,7.529,7.617,13.203c0,5.683-4.962,10.848-7.629,13.215C37.078,54.811,32.52,49.621,32.52,44.295z"/>
	</g>
</g>
<g id="Igenieur" display="none">
	<g display="inline">
		<path fill="#E9504B" d="M59.204,58.094l-0.936-8.662l-5.981-1.977c-0.564-1.299-1.248-2.529-2.026-3.688l1.569-6.114l-6.787-5.465
			l-5.637,2.838c-1.299-0.514-2.647-0.918-4.038-1.193l-3.205-5.42l-8.666,0.937l-1.974,5.979c-1.3,0.565-2.53,1.247-3.689,2.026
			l-6.113-1.568l-5.465,6.787l2.838,5.639C8.581,49.51,8.176,50.859,7.9,52.247l-5.421,3.207l0.936,8.664l5.981,1.977
			c0.565,1.299,1.248,2.529,2.026,3.688l-1.57,6.114l6.788,5.466l5.639-2.839c1.297,0.514,2.647,0.918,4.035,1.191l3.207,5.422
			l8.664-0.935l1.976-5.981c1.298-0.565,2.531-1.247,3.688-2.026l6.114,1.568l5.466-6.787l-2.839-5.639
			c0.513-1.297,0.917-2.646,1.191-4.034L59.204,58.094z M32.337,70.626C24.699,71.45,17.816,65.908,16.99,58.27
			c-0.824-7.637,4.719-14.521,12.355-15.348c7.637-0.822,14.523,4.72,15.348,12.358C45.518,62.917,39.976,69.802,32.337,70.626z"/>
		<path fill="#23A8E0" d="M86.934,58.755l0.586-3.591l-2.189-1.458c-0.083-0.585-0.223-1.156-0.406-1.71l1.309-2.285l-2.124-2.952
			l-2.583,0.519c-0.466-0.351-0.963-0.663-1.493-0.929l-0.688-2.538l-3.59-0.584l-1.459,2.188c-0.584,0.085-1.156,0.222-1.707,0.406
			l-2.286-1.308l-2.951,2.126l0.516,2.582c-0.351,0.464-0.663,0.963-0.927,1.491l-2.538,0.689l-0.583,3.589l2.188,1.458
			c0.083,0.587,0.222,1.158,0.406,1.71l-1.31,2.287l2.126,2.95l2.583-0.516c0.465,0.35,0.963,0.662,1.491,0.926l0.688,2.538
			l3.591,0.584l1.458-2.188c0.585-0.083,1.156-0.222,1.709-0.406l2.285,1.31l2.952-2.126l-0.517-2.584
			c0.35-0.466,0.662-0.961,0.928-1.491L86.934,58.755z M74.734,60.818c-3.166-0.517-5.32-3.51-4.807-6.676
			c0.516-3.163,3.51-5.318,6.675-4.805c3.165,0.517,5.32,3.508,4.805,6.674C80.893,59.177,77.898,61.332,74.734,60.818z"/>
		<path fill="#23A8E0" d="M81.569,29.493l1.67-4.952l-2.76-2.581c0.019-0.85-0.044-1.69-0.177-2.516l2.392-2.936l-2.32-4.683
			l-3.783,0.127c-0.577-0.605-1.208-1.164-1.897-1.664l-0.382-3.758L69.36,4.863l-2.58,2.758c-0.852-0.019-1.692,0.043-2.518,0.176
			l-2.935-2.391l-4.683,2.322l0.126,3.781c-0.604,0.578-1.163,1.21-1.662,1.897l-3.76,0.384l-1.668,4.951l2.76,2.579
			c-0.02,0.85,0.044,1.693,0.177,2.518l-2.392,2.936l2.32,4.681l3.782-0.127c0.577,0.605,1.21,1.164,1.898,1.666l0.381,3.756
			l4.953,1.67l2.579-2.76c0.85,0.021,1.691-0.043,2.519-0.176l2.934,2.391l4.681-2.32l-0.126-3.783
			c0.604-0.578,1.165-1.21,1.663-1.896L81.569,29.493z M63.791,29.559c-4.366-1.473-6.719-6.221-5.248-10.586
			c1.472-4.365,6.22-6.722,10.585-5.248c4.367,1.471,6.721,6.22,5.25,10.587C72.906,28.677,68.157,31.03,63.791,29.559z"/>
	</g>
</g>
<g id="interdisz" display="none">
	<g display="inline">
		<path fill="#23A8E0" d="M78.002,37.277c-4.571,0-8.396,3.241-9.309,7.543l-25.882-2.065l4.575-15.418
			c3.868-0.128,6.979-3.307,6.979-7.205c0-3.979-3.239-7.215-7.217-7.215c-3.979,0-7.217,3.236-7.217,7.215
			c0,2.75,1.546,5.143,3.813,6.361L39.54,40.662L22.42,21.176c1.135-1.717,1.803-3.772,1.803-5.981
			c0-5.994-4.878-10.871-10.872-10.871c-5.993,0-10.87,4.877-10.87,10.871s4.877,10.87,10.87,10.87c2.434,0,4.676-0.813,6.489-2.17
			l16.404,18.671h-18.79c-0.825-3.076-3.629-5.351-6.963-5.351c-3.979,0-7.216,3.237-7.216,7.217c0,3.978,3.237,7.216,7.216,7.216
			c3.333,0,6.137-2.275,6.963-5.35h18.854L17.477,68.252c-1.242-0.627-2.642-0.99-4.126-0.99c-5.075,0-9.206,4.131-9.206,9.207
			c0,5.078,4.131,9.207,9.206,9.207c5.078,0,9.207-4.129,9.207-9.207c0-2.246-0.81-4.303-2.149-5.902l19.847-23.135L48.21,58.27
			c-1.121,1.273-1.809,2.938-1.809,4.764c0,3.979,3.238,7.215,7.217,7.215c3.979,0,7.217-3.236,7.217-7.215
			s-3.237-7.217-7.217-7.217c-0.805,0-1.575,0.139-2.299,0.381l-7.032-9.58l24.368,1.945c0.831,4.406,4.703,7.75,9.347,7.75
			c5.248,0,9.518-4.27,9.518-9.518C87.52,41.547,83.25,37.277,78.002,37.277z M47.148,15.902c2.333,0,4.23,1.897,4.23,4.229
			c0,2.333-1.897,4.231-4.23,4.231s-4.231-1.898-4.231-4.231C42.917,17.799,44.815,15.902,47.148,15.902z M5.467,15.195
			c0-4.348,3.536-7.885,7.884-7.885s7.885,3.537,7.885,7.885c0,4.349-3.537,7.885-7.885,7.885S5.467,19.543,5.467,15.195z
			 M10.491,48.662c-2.332,0-4.229-1.898-4.229-4.23c0-2.334,1.897-4.23,4.229-4.23c2.108,0,3.855,1.55,4.174,3.569v1.32
			C14.347,47.111,12.6,48.662,10.491,48.662z M13.351,82.689c-3.429,0-6.221-2.791-6.221-6.221s2.792-6.221,6.221-6.221
			c3.431,0,6.222,2.791,6.222,6.221S16.781,82.689,13.351,82.689z M57.849,63.033c0,2.332-1.898,4.229-4.23,4.229
			s-4.229-1.896-4.229-4.229c0-2.334,1.897-4.23,4.229-4.23S57.849,60.699,57.849,63.033z M78.002,53.326
			c-3.602,0-6.532-2.93-6.532-6.531c0-3.601,2.931-6.532,6.532-6.532c3.603,0,6.531,2.931,6.531,6.532
			C84.533,50.396,81.604,53.326,78.002,53.326z"/>
		<circle fill="#E9504B" cx="40.368" cy="44.432" r="9.953"/>
	</g>
</g>
</svg>
