<svg width="90" height="90" viewBox="0 0 90 90" fill="none" xmlns="http://www.w3.org/2000/svg">
<path d="M7.232 44.999L23.605 51.733L22.407 55.287L2.48 46.845V43.156L22.407 34.714L23.605 38.266L7.232 44.999Z" fill="white"/>
<path d="M66.395 38.265L67.593 34.713L87.52 43.155V46.844L67.593 55.286L66.395 51.732L82.768 44.998L66.395 38.265Z" fill="white"/>
<path d="M55.988 60.422H52.961L63.762 29.578H66.727L55.988 60.422Z" fill="white"/>
<path d="M53.422 44.295C53.422 36.856 47.977 30.622 44.534 27.427C47.976 24.229 53.422 17.997 53.422 10.557H47.752C47.752 16.233 42.806 21.389 40.135 23.759C37.465 21.389 32.52 16.23 32.52 10.557H26.85C26.85 17.997 32.295 24.229 35.737 27.427C32.296 30.622 26.85 36.856 26.85 44.295C26.85 52.324 33.195 58.949 36.517 61.869C33.195 64.787 26.85 71.412 26.85 79.443H32.52C32.52 73.76 37.482 68.594 40.149 66.228C43.194 68.929 47.753 74.116 47.753 79.443H53.423C53.423 71.412 47.076 64.787 43.757 61.869C47.075 58.949 53.422 52.324 53.422 44.295ZM32.52 44.295C32.52 38.621 37.466 33.463 40.135 31.092C42.808 33.466 47.752 38.621 47.752 44.295C47.752 49.978 42.79 55.143 40.123 57.51C37.078 54.811 32.52 49.621 32.52 44.295Z" fill="white"/>
</svg>
