<svg width="90" height="90" viewBox="0 0 90 90" fill="none" xmlns="http://www.w3.org/2000/svg">
<path d="M73.768 44.741C75.035 43.653 76.219 42.562 77.304 41.471C83.62 35.137 86.015 29.481 84.049 25.546C82.999 23.445 80.232 20.942 73.005 20.942C68.952 20.942 64.069 21.737 58.765 23.193C56.351 11.165 51.839 2.04999 45.43 2.04999C39.04 2.04999 34.536 11.112 32.117 23.086C26.958 21.696 22.213 20.942 18.258 20.942C11.03 20.942 8.264 23.445 7.213 25.546C5.246 29.481 7.641 35.137 13.957 41.471C15.043 42.562 16.227 43.653 17.494 44.741C9.394 51.636 4.621 58.766 7.213 63.952C8.264 66.054 11.03 68.556 18.258 68.556C22.188 68.556 26.899 67.814 32.022 66.441C34.417 78.65 38.957 87.951 45.431 87.951C51.924 87.951 56.473 78.597 58.862 66.334C64.131 67.772 68.977 68.555 73.007 68.557C80.234 68.557 83.001 66.055 84.051 63.953C86.641 58.767 81.866 51.636 73.768 44.741ZM73.005 23.892C77.468 23.892 80.454 24.947 81.412 26.864C82.728 29.496 80.412 34.18 75.217 39.392C74.071 40.54 72.808 41.696 71.449 42.844C68.131 40.233 64.383 37.688 60.425 35.328C60.172 32.166 59.796 29.062 59.3 26.093C64.429 24.668 69.131 23.892 73.005 23.892ZM51.188 55.87C49.333 56.796 47.476 57.659 45.629 58.47C43.783 57.659 41.926 56.796 40.073 55.87C37.704 54.686 35.409 53.444 33.208 52.161C33.073 49.858 32.997 47.473 32.997 45.001C32.997 42.344 33.084 39.783 33.241 37.321C35.393 36.068 37.669 34.83 40.072 33.63C41.926 32.701 43.783 31.839 45.629 31.029C47.476 31.839 49.332 32.701 51.188 33.63C53.437 34.753 55.573 35.91 57.603 37.08C57.77 39.616 57.862 42.258 57.862 45.001C57.862 47.558 57.78 50.024 57.635 52.401C55.562 53.599 53.409 54.759 51.188 55.87ZM57.366 55.94C57.15 58.264 56.868 60.483 56.53 62.585C54.192 61.853 51.788 61.001 49.342 60.026C50.398 59.536 51.452 59.034 52.507 58.506C54.163 57.679 55.783 56.819 57.366 55.94ZM41.92 60.026C39.339 61.053 36.804 61.944 34.347 62.704C33.99 60.497 33.694 58.161 33.471 55.706C35.187 56.667 36.95 57.602 38.755 58.507C39.809 59.034 40.865 59.536 41.92 60.026ZM30.169 50.325C27.286 48.518 24.597 46.653 22.165 44.759C24.541 42.902 27.226 41.021 30.19 39.164C30.096 41.108 30.049 43.06 30.049 45.001C30.05 46.771 30.091 48.55 30.169 50.325ZM33.523 33.77C33.755 31.33 34.058 29.007 34.425 26.819C36.859 27.573 39.366 28.457 41.919 29.472C40.865 29.963 39.809 30.465 38.754 30.993C36.994 31.873 35.244 32.801 33.523 33.77ZM49.342 29.472C51.762 28.509 54.142 27.666 56.454 26.936C56.801 29.02 57.089 31.225 57.314 33.534C55.729 32.652 54.124 31.8 52.506 30.993C51.452 30.465 50.397 29.963 49.342 29.472ZM60.655 38.903C63.786 40.846 66.608 42.814 69.095 44.759C66.549 46.743 63.719 48.697 60.679 50.579C60.764 48.722 60.809 46.856 60.809 45.001C60.81 42.972 60.757 40.933 60.655 38.903ZM45.43 4.99699C49.335 4.99699 53.536 12.252 55.917 24.026C52.591 25.057 49.133 26.326 45.63 27.816C41.995 26.27 38.409 24.962 34.966 23.911C37.351 12.203 41.537 4.99699 45.43 4.99699ZM16.044 39.392C10.849 34.18 8.532 29.496 9.849 26.864C10.808 24.947 13.792 23.892 18.257 23.892C22.033 23.892 26.597 24.628 31.577 25.986C31.059 29.065 30.673 32.293 30.417 35.577C26.612 37.868 23.013 40.325 19.812 42.845C18.454 41.696 17.191 40.541 16.044 39.392ZM18.257 65.608C13.792 65.608 10.808 64.553 9.849 62.635C8.254 59.446 11.962 53.33 19.827 46.66C22.965 49.146 26.52 51.588 30.381 53.906C30.623 57.199 30.996 60.437 31.501 63.533C26.55 64.88 22.015 65.608 18.257 65.608ZM45.43 85.005C41.486 85.005 37.242 77.603 34.873 65.618C38.344 64.561 41.962 63.241 45.63 61.682C49.166 63.186 52.653 64.463 56.01 65.5C53.646 77.556 49.388 85.005 45.43 85.005ZM81.412 62.636C80.454 64.554 77.47 65.609 73.005 65.609C69.151 65.609 64.476 64.838 59.377 63.425C59.859 60.441 60.222 57.325 60.462 54.159C64.483 51.766 68.185 49.237 71.435 46.661C79.298 53.331 83.007 59.446 81.412 62.636Z" fill="white"/>
<path d="M52.921 45.001C52.921 49.136 49.566 52.493 45.43 52.493C41.293 52.493 37.939 49.136 37.939 45.001C37.939 40.863 41.293 37.508 45.43 37.508C49.565 37.508 52.921 40.863 52.921 45.001Z" fill="white"/>
<path d="M19.089 60.689C20.5305 60.689 21.699 59.5205 21.699 58.079C21.699 56.6375 20.5305 55.469 19.089 55.469C17.6475 55.469 16.479 56.6375 16.479 58.079C16.479 59.5205 17.6475 60.689 19.089 60.689Z" fill="white"/>
<path d="M45.43 17.309C46.8715 17.309 48.04 16.1405 48.04 14.699C48.04 13.2575 46.8715 12.089 45.43 12.089C43.9885 12.089 42.82 13.2575 42.82 14.699C42.82 16.1405 43.9885 17.309 45.43 17.309Z" fill="white"/>
<path d="M85.126 47.21C86.5669 47.21 87.735 46.0419 87.735 44.601C87.735 43.1601 86.5669 41.992 85.126 41.992C83.6851 41.992 82.517 43.1601 82.517 44.601C82.517 46.0419 83.6851 47.21 85.126 47.21Z" fill="white"/>
<path d="M5.306 47.21C6.74691 47.21 7.915 46.0419 7.915 44.601C7.915 43.1601 6.74691 41.992 5.306 41.992C3.86509 41.992 2.697 43.1601 2.697 44.601C2.697 46.0419 3.86509 47.21 5.306 47.21Z" fill="white"/>
</svg>
