<?xml version="1.0" encoding="utf-8"?>
<!-- Generator: Adobe Illustrator 16.0.0, SVG Export Plug-In . SVG Version: 6.00 Build 0)  -->
<!DOCTYPE svg PUBLIC "-//W3C//DTD SVG 1.1//EN" "http://www.w3.org/Graphics/SVG/1.1/DTD/svg11.dtd">
<svg version="1.1" xmlns="http://www.w3.org/2000/svg" xmlns:xlink="http://www.w3.org/1999/xlink" x="0px" y="0px" width="90px"
	 height="90px" viewBox="0 0 90 90" enable-background="new 0 0 90 90" xml:space="preserve">
<g id="Ebene_9" display="none">
	<g display="inline">
		<path fill="#23A8E0" d="M9.316,60.297c0-7.463,6.072-13.535,13.535-13.535h3.676h18.712h3.678c9.117,0,16.535-7.418,16.535-16.537
			c0-9.117-7.418-16.534-16.535-16.534H7.816v3h41.101c7.463,0,13.535,6.072,13.535,13.536c0,7.463-6.072,13.535-13.535,13.535
			h-3.678H26.527h-3.676c-9.117,0-16.535,7.417-16.535,16.535s7.418,16.535,16.535,16.535h41.101v-3H22.851
			C15.388,73.832,9.316,67.76,9.316,60.297z"/>
		<circle fill="#E9504B" cx="9.283" cy="15.191" r="5.746"/>
		<circle fill="#E9504B" cx="47.376" cy="15.191" r="5.746"/>
		<circle fill="#E9504B" cx="30.218" cy="45.262" r="5.746"/>
		<circle fill="#E9504B" cx="22.845" cy="75.332" r="5.746"/>
		<circle fill="#F8B133" cx="63.952" cy="75.332" r="4.082"/>
		<path fill="#F8B133" d="M64.644,76.756c-1.068-0.174-1.793-1.182-1.617-2.25l4.789-29.3c0.174-1.068,1.184-1.793,2.252-1.618
			c1.068,0.173,1.793,1.182,1.617,2.251l-4.789,29.3C66.72,76.207,65.712,76.932,64.644,76.756z"/>
		<polygon fill="#F8B133" points="84.472,60.443 67.757,57.711 69.751,45.523 86.464,48.254 80.62,53.555 		"/>
	</g>
</g>
<g id="Ebene_10" display="none">
	<g display="inline">
		<g>
			<path fill="#23A8E0" d="M28.643,55.648h-5.42c-2.695,0-4.887-2.193-4.887-4.885v-5.42c0-2.693,2.191-4.886,4.887-4.886h5.42
				c2.695,0,4.885,2.193,4.885,4.886v5.42C33.527,53.455,31.338,55.648,28.643,55.648z M23.223,43.005
				c-1.291,0-2.338,1.049-2.338,2.338v5.42c0,1.285,1.047,2.334,2.338,2.334h5.42c1.287,0,2.338-1.049,2.338-2.334v-5.42
				c0-1.289-1.051-2.338-2.338-2.338H23.223z"/>
			<path fill="#23A8E0" d="M66.734,61.971H16.158c-2.697,0-4.889-2.189-4.889-4.887V39.017c0-2.691,2.191-4.885,4.889-4.885h50.576
				c2.695,0,4.889,2.193,4.889,4.885v18.067C71.623,59.781,69.43,61.971,66.734,61.971z M16.158,36.685
				c-1.289,0-2.342,1.047-2.342,2.332v18.067c0,1.291,1.053,2.338,2.342,2.338h50.576c1.289,0,2.34-1.047,2.34-2.338V39.017
				c0-1.285-1.051-2.332-2.34-2.332H16.158z"/>
			<path fill="#23A8E0" d="M62.152,46.438H39.209c-0.701,0-1.273-0.571-1.273-1.278c0-0.701,0.572-1.275,1.273-1.275h22.943
				c0.703,0,1.273,0.574,1.273,1.275C63.426,45.867,62.855,46.438,62.152,46.438z"/>
			<path fill="#23A8E0" d="M62.152,52.01H39.209c-0.701,0-1.273-0.566-1.273-1.271c0-0.707,0.572-1.275,1.273-1.275h22.943
				c0.703,0,1.273,0.568,1.273,1.275C63.426,51.443,62.855,52.01,62.152,52.01z"/>
		</g>
		<circle fill="#F8B133" cx="69.253" cy="31.173" r="12.296"/>
		<g>
			<path fill="#FFFFFF" d="M69.252,33.449c-0.439,0.547-0.934,1.009-1.48,1.388c-0.547,0.38-1.191,0.569-1.932,0.569
				c-1.305,0-2.332-0.374-3.08-1.124c-0.752-0.749-1.125-1.787-1.125-3.108c0-1.358,0.373-2.402,1.125-3.135
				c0.748-0.731,1.775-1.099,3.08-1.099c0.74,0,1.389,0.186,1.945,0.557c0.555,0.37,1.043,0.837,1.467,1.401
				c0.441-0.547,0.936-1.009,1.482-1.389c0.545-0.379,1.191-0.569,1.932-0.569c1.305,0,2.332,0.375,3.08,1.124
				c0.752,0.751,1.125,1.786,1.125,3.109c0,1.358-0.373,2.403-1.125,3.135c-0.748,0.731-1.775,1.098-3.08,1.098
				c-0.74,0-1.389-0.185-1.945-0.556C70.166,34.479,69.678,34.013,69.252,33.449z M67.852,31.174
				c-0.248-0.494-0.539-0.865-0.875-1.111c-0.334-0.247-0.697-0.371-1.082-0.371c-0.406,0-0.715,0.156-0.928,0.465
				c-0.211,0.309-0.316,0.646-0.316,1.018s0.105,0.71,0.316,1.018c0.213,0.309,0.521,0.463,0.928,0.463
				c0.385,0,0.74-0.114,1.057-0.344C67.27,32.082,67.568,31.703,67.852,31.174z M70.654,31.174c0.246,0.493,0.539,0.865,0.873,1.109
				c0.336,0.249,0.697,0.371,1.086,0.371c0.404,0,0.715-0.154,0.926-0.463c0.211-0.308,0.316-0.646,0.316-1.018
				s-0.105-0.709-0.316-1.018s-0.521-0.465-0.926-0.465c-0.389,0-0.742,0.116-1.059,0.346
				C71.236,30.266,70.936,30.645,70.654,31.174z"/>
		</g>
	</g>
</g>
<g id="Ebene_11" display="none">
	<g display="inline">
		<g>
			<line fill="none" stroke="#E9504B" stroke-width="3" stroke-miterlimit="10" x1="84.038" y1="62.034" x2="67.304" y2="66.767"/>
			<path fill="none" stroke="#23A8E0" stroke-width="3" stroke-miterlimit="10" d="M49.817,47.544
				c0.59,0.471,1.188,0.955,1.793,1.443c7.223,5.859,12.68,11.037,14.779,13.178s1.389,3.559,0.139,5.012l0,0
				c-1.25,1.451-3.441,1.615-4.895,0.367l-3.643-2.691"/>
			<path fill="none" stroke="#23A8E0" stroke-width="3" stroke-miterlimit="10" d="M5.962,37.682l23.822,8.88
				c0,0,6.736-5.737,10.975-5.737c0.947,0,2.27,0.688,3.838,1.817"/>
			<path fill="none" stroke="#23A8E0" stroke-width="3" stroke-miterlimit="10" d="M53.14,60.677l7.049,6.066
				c1.453,1.252,1.574,3.492,0.27,5.008l0,0c-1.867,2.455-5.826,0.211-7.277-1.039"/>
			<path fill="none" stroke="#23A8E0" stroke-width="3" stroke-miterlimit="10" d="M50.532,68.435l4.664,4.014
				c1.451,1.25,1.615,3.443,0.365,4.893l0,0c-1.25,1.453-3.441,1.619-4.895,0.367l-1.316-1.061"/>
			<path fill="none" stroke="#E9504B" stroke-width="3" stroke-miterlimit="10" d="M42.872,67.989c1.279,1.279,1.279,3.354,0,4.633
				l-4.703,4.703c-1.279,1.279-3.355,1.279-4.635,0l0,0c-1.279-1.279-1.279-3.355,0-4.635l4.703-4.701
				C39.517,66.71,41.593,66.71,42.872,67.989L42.872,67.989z"/>
			<path fill="none" stroke="#E9504B" stroke-width="3" stroke-miterlimit="10" d="M47.831,73.724
				c1.281,1.277,1.43,3.205,0.332,4.301l-4.029,4.029c-1.096,1.098-3.021,0.947-4.303-0.332l0,0
				c-1.279-1.279-1.428-3.205-0.332-4.301l4.029-4.029C44.626,72.294,46.552,72.442,47.831,73.724L47.831,73.724z"/>
			<line fill="none" stroke="#23A8E0" stroke-width="3" stroke-miterlimit="10" x1="6.212" y1="62.034" x2="27.235" y2="68.671"/>
			<path fill="none" stroke="#E9504B" stroke-width="3" stroke-miterlimit="10" d="M37.243,62.995c1.279,1.277,1.279,3.354,0,4.633
				l-4.703,4.703c-1.279,1.279-3.355,1.279-4.635,0l0,0c-1.279-1.281-1.281-3.354,0-4.633l4.703-4.703
				C33.888,61.716,35.964,61.716,37.243,62.995L37.243,62.995z"/>
			<path fill="none" stroke="#E9504B" stroke-width="3" stroke-miterlimit="10" d="M82.831,40.452l-21.846,5.738
				c0,0-6.424-5.738-10.83-5.738s-11.639,7.862-11.623,8.282c0.016,0.418,3.061,1.945,5.803,1.945c2.744,0,7.035-4.032,7.035-4.032"
				/>
		</g>
		<g>
			<path fill="#F8B133" d="M38.26,14c0.66-2.844,1.918-4.991,3.772-6.438c1.854-1.448,4.229-2.171,7.124-2.171
				c1.143,0,2.121,0.089,2.934,0.267s1.625,0.419,2.438,0.724l-1.18,4.419c-0.609-0.203-1.232-0.375-1.867-0.514
				s-1.422-0.21-2.361-0.21c-1.525,0-2.713,0.331-3.563,0.991c-0.852,0.661-1.467,1.638-1.848,2.934h8.458l-0.725,3.771h-8.228
				c-0.025,0.28-0.038,0.514-0.038,0.705c0,0.19,0,0.387,0,0.59c0,0.204,0,0.381,0,0.533s0.013,0.369,0.038,0.648h7.771
				l-0.723,3.771h-6.553c0.432,1.524,1.079,2.584,1.943,3.181c0.864,0.597,1.942,0.895,3.239,0.895c0.838,0,1.688-0.076,2.551-0.229
				s1.729-0.406,2.592-0.762l1.105,4.381c-0.688,0.356-1.57,0.667-2.648,0.934c-1.08,0.267-2.344,0.4-3.791,0.4
				c-3.175,0-5.6-0.768-7.277-2.305c-1.676-1.537-2.78-3.702-3.314-6.496h-2.742v-3.771h2.399c-0.025-0.279-0.038-0.496-0.038-0.648
				s0-0.33,0-0.533c0-0.203,0-0.419,0-0.648c0-0.229,0.013-0.444,0.038-0.647h-2.399V14H38.26z"/>
		</g>
	</g>
</g>
<g id="Ebene_12" display="none">
	<g display="inline">
		<path fill="#23A8E0" d="M79.729,15.695l-2.061-1.469l-16.531,9.537l0,0l-18.721-5.068c-0.133,0-0.252,0-0.252,0.169l-0.084,19.141
			c0.014,0.143,0.113,0.261,0.252,0.296l18.779,5.068v-5.778l-12.273-3.32c-0.137-0.042-0.236-0.161-0.254-0.304v-0.692
			c0-0.126,0.119-0.195,0.262-0.161l12.334,3.337v-5.778l-12.342-3.311c-0.143-0.038-0.246-0.158-0.264-0.304v-0.684
			c0.008-0.107,0.102-0.188,0.209-0.181c0.018,0.001,0.037,0.005,0.055,0.012l12.299,3.312l0,0l16.521-9.52l0,0L79.729,15.695z"/>
		<path fill="#E9504B" d="M77.491,40.835l-16.354,9.394v-5.702l11.354-6.555c0.119-0.076,0.193-0.205,0.203-0.346v-0.693
			c0-0.118-0.094-0.177-0.203-0.109l-11.328,6.504v-5.735l11.328-6.53c0.115-0.073,0.191-0.2,0.193-0.338v-0.692
			c0-0.126-0.084-0.178-0.201-0.11l-11.346,6.53v-5.778l16.303-9.402c0.109-0.067,0.195,0,0.195,0.11l0.059,19.108
			C77.687,40.63,77.612,40.759,77.491,40.835"/>
		<polygon fill-rule="evenodd" clip-rule="evenodd" fill="#FFFFFF" points="31.106,18.51 49.864,43.983 49.864,58.694 
			23.405,57.696 24.491,17.565 		"/>
		<g>
			<g id="Triangle_1_">
				<polygon fill-rule="evenodd" clip-rule="evenodd" fill="#F8B133" points="29.796,22.41 12.938,44.883 46.651,44.883 				"/>
			</g>
			<rect x="12.938" y="47.268" fill-rule="evenodd" clip-rule="evenodd" fill="#F8B133" width="33.713" height="7.648"/>
			<rect x="12.938" y="57.696" fill-rule="evenodd" clip-rule="evenodd" fill="#F8B133" width="33.713" height="7.649"/>
			<rect x="12.938" y="68.126" fill-rule="evenodd" clip-rule="evenodd" fill="#F8B133" width="33.713" height="7.648"/>
		</g>
	</g>
</g>
<g id="Ebene_5" display="none">
	<g display="inline">
		<g id="User_11_">
			<path fill-rule="evenodd" clip-rule="evenodd" fill="#23A8E0" d="M18.608,31.049h-3.832c-3.275,0-5.931,2.654-5.931,5.93
				s2.656,5.932,5.931,5.932h3.832c3.276,0,5.931-2.656,5.931-5.932S21.884,31.049,18.608,31.049z M16.602,30.406
				c2.519,0,4.561-2.041,4.561-4.559c0-2.52-2.042-4.563-4.561-4.563c-2.519,0-4.561,2.043-4.561,4.563
				C12.041,28.365,14.083,30.406,16.602,30.406z"/>
		</g>
		<g id="User_10_">
			<path fill-rule="evenodd" clip-rule="evenodd" fill="#23A8E0" d="M64.598,15.941h-2.65c-2.267,0-4.104,1.836-4.104,4.102
				s1.837,4.104,4.104,4.104h2.65c2.266,0,4.103-1.838,4.103-4.104S66.863,15.941,64.598,15.941z M63.209,15.498
				c1.742,0,3.154-1.412,3.154-3.154s-1.412-3.156-3.154-3.156s-3.154,1.414-3.154,3.156S61.467,15.498,63.209,15.498z"/>
		</g>
		<g id="User_5_">
			<path fill-rule="evenodd" clip-rule="evenodd" fill="#23A8E0" d="M23.9,68.951h-3.832c-3.275,0-5.931,2.654-5.931,5.93
				c0,3.277,2.656,5.932,5.931,5.932H23.9c3.276,0,5.932-2.654,5.932-5.932C29.832,71.605,27.176,68.951,23.9,68.951z
				 M21.894,68.311c2.519,0,4.561-2.043,4.561-4.561c0-2.52-2.042-4.561-4.561-4.561c-2.519,0-4.561,2.041-4.561,4.561
				C17.333,66.268,19.375,68.311,21.894,68.311z"/>
		</g>
		<g id="User_4_">
			<path fill-rule="evenodd" clip-rule="evenodd" fill="#E9504B" d="M53.652,47.392h-4.904c-4.192,0-7.592,3.398-7.592,7.591
				s3.399,7.592,7.592,7.592h4.904c4.193,0,7.592-3.399,7.592-7.592S57.846,47.392,53.652,47.392z M51.084,46.571
				c3.224,0,5.837-2.613,5.837-5.836c0-3.226-2.613-5.839-5.837-5.839c-3.225,0-5.837,2.613-5.837,5.839
				C45.247,43.958,47.859,46.571,51.084,46.571z"/>
		</g>
		<path fill-rule="evenodd" clip-rule="evenodd" fill="#E9504B" d="M73.744,46.789c-0.393-4.918-2.367-9.382-5.403-12.905
			l1.628-1.629l-2.213-2.211l-1.619,1.619c-3.512-3.09-7.984-5.109-12.922-5.535V18.58h-3.762v7.547
			c-4.964,0.396-9.464,2.404-13,5.492l-1.734-1.736l-2.213,2.215l1.734,1.736c-3.063,3.529-5.059,8.012-5.454,12.955h-7.542v3.761
			h7.554c0.422,4.938,2.443,9.409,5.529,12.922l-1.822,1.823l2.213,2.21l1.83-1.829c3.521,3.038,7.986,5.013,12.904,5.406v7.811
			h3.762v-7.815c4.891-0.42,9.326-2.407,12.824-5.444l1.955,1.955l2.212-2.215l-1.951-1.95c3.059-3.508,5.062-7.961,5.483-12.873
			h7.416v-3.761H73.744z M68.732,48.736c0,0.611-0.031,1.218-0.094,1.813h1.333c-0.909,8.83-7.927,15.844-16.757,16.752v-1.157
			c-0.662,0.075-1.333,0.124-2.015,0.124c-0.59,0-1.173-0.032-1.747-0.088v1.14c-8.893-0.85-15.979-7.895-16.891-16.771h1.199
			c-0.061-0.596-0.094-1.202-0.094-1.813c0-0.659,0.043-1.308,0.115-1.947h-1.236c0.855-8.937,7.969-16.045,16.906-16.9v1.405
			c0.574-0.058,1.157-0.09,1.747-0.09c0.682,0,1.353,0.049,2.015,0.124v-1.425c8.873,0.914,15.916,7.991,16.768,16.886h-1.364
			C68.689,47.429,68.732,48.077,68.732,48.736z"/>
	</g>
</g>
<g id="Ebene_6" display="none">
	<g display="inline">
		<g id="Zoom_1_">
			<path fill-rule="evenodd" clip-rule="evenodd" fill="#23A8E0" d="M57.128,53.264c3.813-4.646,6.104-10.593,6.104-17.074
				c0-14.881-12.063-26.943-26.945-26.943c-14.88,0-26.942,12.063-26.942,26.943c0,14.885,12.062,26.947,26.942,26.947
				c6.849,0,13.08-2.576,17.832-6.783L77.604,79.84l3.05-3.051L57.128,53.264z M36.286,60.441
				c-13.391,0-24.248-10.857-24.248-24.252c0-13.393,10.857-24.248,24.248-24.248c13.395,0,24.25,10.855,24.25,24.248
				C60.536,49.584,49.681,60.441,36.286,60.441z"/>
		</g>
		<g id="User_13_">
			<path fill-rule="evenodd" clip-rule="evenodd" fill="#E9504B" d="M39.306,34.427h-6.083c-5.2,0-9.416,4.215-9.416,9.415
				c0,5.201,4.216,9.418,9.416,9.418h6.083c5.201,0,9.416-4.217,9.416-9.418C48.722,38.642,44.507,34.427,39.306,34.427z
				 M36.12,33.409c3.998,0,7.24-3.241,7.24-7.239c0-3.999-3.242-7.24-7.24-7.24s-7.24,3.241-7.24,7.24
				C28.88,30.168,32.122,33.409,36.12,33.409z"/>
		</g>
	</g>
</g>
<g id="Ebene_7" display="none">
	<g display="inline">
		<polygon fill-rule="evenodd" clip-rule="evenodd" fill="#23A8E0" points="79.839,69.883 69.883,59.93 69.883,67.395 
			22.603,67.395 22.603,20.116 30.068,20.116 20.114,10.161 10.16,20.116 17.626,20.116 17.626,72.371 69.883,72.371 69.883,79.84 
					"/>
		<path fill-rule="evenodd" clip-rule="evenodd" fill="#E9504B" d="M29.841,45.02c-2.641,0.123-4.75,2.287-4.75,4.957
			c0,2.746,2.229,4.977,4.978,4.977c2.748,0,4.977-2.23,4.977-4.977c0-0.982-0.294-1.891-0.785-2.664l5.813-11.627l5.765,11.53
			c-0.528,0.791-0.839,1.74-0.839,2.762c0,2.746,2.229,4.977,4.978,4.977c2.747,0,4.977-2.23,4.977-4.977
			c0-0.76-0.185-1.473-0.489-2.117l15.194-22.789c0.075,0.002,0.147,0.021,0.225,0.021c2.749,0,4.977-2.227,4.977-4.977
			c0-2.748-2.228-4.977-4.977-4.977s-4.977,2.229-4.977,4.977c0,0.817,0.216,1.577,0.565,2.26L50.364,45.039
			c-0.018-0.003-0.035-0.005-0.053-0.007l-6.125-12.25c0.511-0.781,0.813-1.71,0.813-2.713c0-2.748-2.229-4.977-4.978-4.977
			c-2.747,0-4.977,2.229-4.977,4.977c0,1.043,0.323,2.008,0.87,2.807L29.841,45.02z"/>
	</g>
</g>
<g id="Ebene_8" display="none">
	<g id="User_14_" display="inline">
		<path fill-rule="evenodd" clip-rule="evenodd" fill="#E9504B" d="M49.357,42.612h-8.715c-7.449,0-13.49,6.037-13.49,13.488
			s6.041,13.488,13.49,13.488h8.715c7.451,0,13.49-6.037,13.49-13.488S56.809,42.612,49.357,42.612z M44.793,41.153
			c5.729,0,10.373-4.643,10.373-10.37c0-5.729-4.645-10.372-10.373-10.372s-10.372,4.643-10.372,10.372
			C34.421,36.511,39.064,41.153,44.793,41.153z"/>
	</g>
</g>
<g id="Ebene_1" display="none">
	<g display="inline">
		<path fill="#23A8E0" d="M74.447,63.703c-1.056,0-2.461-0.927-5.277-2.876c-1.139-0.788-2.803-1.94-3.517-2.265
			c-2.199,0.805-4.513,1.352-6.884,1.627c-0.79,0.093-1.509-0.476-1.602-1.268c-0.092-0.793,0.477-1.51,1.268-1.603
			c2.264-0.263,4.467-0.798,6.551-1.591c1.164-0.441,2.406,0.354,5.828,2.723c0.279,0.193,0.588,0.407,0.907,0.626
			c-0.035-0.063-0.07-0.124-0.104-0.184c-0.541-0.947-1.1-1.927-1.474-2.718c-0.235-0.496-0.382-0.885-0.462-1.219
			c-0.291-1.219,0.354-1.815,0.645-2.016c5.749-3.95,9.047-9.817,9.047-16.096c0-11.395-10.877-20.665-24.246-20.665
			c-10.645,0-20.201,6.071-23.24,14.762c-0.263,0.753-1.087,1.15-1.84,0.887c-0.754-0.263-1.15-1.087-0.887-1.84
			c1.662-4.755,5.112-9.021,9.717-12.013c4.719-3.065,10.338-4.686,16.25-4.686c7.208,0,13.994,2.424,19.108,6.826
			c5.177,4.454,8.026,10.396,8.026,16.729c0,6.972-3.477,13.473-9.572,17.961c0.326,0.708,0.972,1.84,1.438,2.654
			c1.668,2.924,2.227,4.035,1.933,5.041c-0.128,0.436-0.415,0.79-0.81,0.998C74.994,63.635,74.733,63.703,74.447,63.703z"/>
		<path fill="#E9504B" d="M15.5,76.313c-0.27,0-0.526-0.05-0.764-0.149c-0.482-0.203-0.852-0.588-1.035-1.086
			c-0.41-1.106,0.152-2.316,1.361-4.73c0.283-0.564,0.697-1.392,0.945-1.982c-2.414-1.598-4.426-3.59-5.855-5.805
			c-1.684-2.607-2.572-5.549-2.572-8.505c0-5.044,2.482-9.76,6.993-13.279c4.391-3.426,10.204-5.313,16.372-5.313
			c6.167,0,11.981,1.887,16.372,5.313c4.51,3.52,6.993,8.235,6.993,13.279s-2.483,9.761-6.993,13.279
			c-4.391,3.427-10.205,5.313-16.372,5.313c-2.492,0-4.941-0.309-7.285-0.918c-0.65,0.294-2.129,1.29-3.141,1.972
			C17.703,75.597,16.541,76.313,15.5,76.313z M30.945,38.73c-11.083,0-20.1,6.875-20.1,15.326c0,4.722,2.809,9.114,7.705,12.052
			c0.25,0.15,1.057,0.742,0.906,2.031c-0.039,0.35-0.146,0.74-0.334,1.229c-0.225,0.58-0.548,1.254-0.885,1.932
			c0.159-0.107,0.313-0.211,0.457-0.307c2.776-1.871,3.922-2.577,4.945-2.577c0.182,0,0.359,0.023,0.528,0.069
			c2.17,0.596,4.45,0.897,6.776,0.897c11.083,0,20.1-6.875,20.1-15.326C51.045,45.605,42.028,38.73,30.945,38.73z"/>
	</g>
</g>
<g id="Ebene_2" display="none">
	<g display="inline">
		<path fill-rule="evenodd" clip-rule="evenodd" fill="#23A8E0" d="M28.505,27.371v-7.873h33.138v7.873h2.953V13.769
			c0-3.671-2.974-6.647-6.645-6.647H31.889c-3.671,0-6.645,2.977-6.645,6.647v13.603H28.505z M41.66,12.867h6.727
			c0.429,0,0.781,0.35,0.781,0.78c0,0.428-0.353,0.775-0.781,0.775H41.66c-0.431,0-0.778-0.348-0.778-0.775
			C40.882,13.217,41.229,12.867,41.66,12.867z"/>
		<path fill-rule="evenodd" clip-rule="evenodd" fill="#23A8E0" d="M61.643,51.405V69.21H28.505V51.405h-3.261v23.638
			c0,3.666,2.974,6.645,6.645,6.645h26.063c3.671,0,6.645-2.979,6.645-6.645V51.405H61.643z M44.972,79.461
			c-2.288,0-4.142-1.856-4.142-4.144c0-2.284,1.854-4.142,4.142-4.142c2.287,0,4.145,1.857,4.145,4.142
			C49.116,77.604,47.259,79.461,44.972,79.461z"/>
	</g>
	<g display="inline">
		<path fill="#E9504B" d="M32.751,46.605h-5.149c-2.561,0-4.643-2.082-4.643-4.643v-5.15c0-2.561,2.082-4.645,4.643-4.645h5.149
			c2.561,0,4.644,2.084,4.644,4.645v5.15C37.395,44.523,35.312,46.605,32.751,46.605z M27.602,34.59
			c-1.226,0-2.221,0.998-2.221,2.223v5.15c0,1.225,0.995,2.221,2.221,2.221h5.149c1.226,0,2.222-0.996,2.222-2.221v-5.15
			c0-1.225-0.996-2.223-2.222-2.223H27.602z"/>
		<path fill="#E9504B" d="M44.919,58.289c0,0-0.002,0-0.004,0c-0.444-0.002-0.854-0.248-1.064-0.642l-2.691-5.032H20.889
			c-2.561,0-4.645-2.083-4.645-4.646V30.805c0-2.562,2.084-4.645,4.645-4.645H68.95c2.562,0,4.646,2.083,4.646,4.645V47.97
			c0,2.563-2.084,4.646-4.646,4.646H48.726l-2.743,5.041C45.771,58.047,45.363,58.289,44.919,58.289z M20.889,28.582
			c-1.226,0-2.223,0.998-2.223,2.223V47.97c0,1.226,0.997,2.224,2.223,2.224h20.997c0.446,0,0.857,0.246,1.068,0.641l1.976,3.692
			l2.014-3.7c0.212-0.391,0.62-0.633,1.063-0.633H68.95c1.227,0,2.224-0.998,2.224-2.224V30.805c0-1.225-0.997-2.223-2.224-2.223
			H20.889z"/>
		<path fill="#E9504B" d="M64.596,37.85h-21.8c-0.67,0-1.212-0.541-1.212-1.211c0-0.668,0.542-1.211,1.212-1.211h21.8
			c0.669,0,1.21,0.543,1.21,1.211C65.806,37.309,65.265,37.85,64.596,37.85z"/>
		<path fill="#E9504B" d="M64.596,43.148h-21.8c-0.67,0-1.212-0.542-1.212-1.211c0-0.668,0.542-1.211,1.212-1.211h21.8
			c0.669,0,1.21,0.543,1.21,1.211C65.806,42.606,65.265,43.148,64.596,43.148z"/>
	</g>
</g>
<g id="Ebene_3">
	<g>
		<g>
			<path fill="#23A8E0" d="M29.018,55.613h-5.421c-2.694,0-4.886-2.192-4.886-4.885v-5.42c0-2.693,2.191-4.886,4.886-4.886h5.421
				c2.695,0,4.885,2.192,4.885,4.886v5.42C33.902,53.421,31.713,55.613,29.018,55.613z M23.597,42.972
				c-1.29,0-2.338,1.048-2.338,2.337v5.42c0,1.286,1.048,2.334,2.338,2.334h5.421c1.287,0,2.338-1.048,2.338-2.334v-5.42
				c0-1.289-1.051-2.337-2.338-2.337H23.597z"/>
			<path fill="#23A8E0" d="M67.108,61.936H16.533c-2.697,0-4.889-2.189-4.889-4.886V38.982c0-2.691,2.191-4.885,4.889-4.885h50.575
				c2.696,0,4.889,2.193,4.889,4.885V57.05C71.997,59.746,69.805,61.936,67.108,61.936z M16.533,36.65
				c-1.289,0-2.342,1.047-2.342,2.332V57.05c0,1.29,1.053,2.338,2.342,2.338h50.575c1.29,0,2.34-1.048,2.34-2.338V38.982
				c0-1.285-1.05-2.332-2.34-2.332H16.533z"/>
			<path fill="#23A8E0" d="M62.526,46.402H39.584c-0.701,0-1.273-0.57-1.273-1.277c0-0.701,0.572-1.275,1.273-1.275h22.942
				c0.703,0,1.273,0.574,1.273,1.275C63.8,45.832,63.229,46.402,62.526,46.402z"/>
			<path fill="#23A8E0" d="M62.526,51.975H39.584c-0.701,0-1.273-0.566-1.273-1.271c0-0.707,0.572-1.274,1.273-1.274h22.942
				c0.703,0,1.273,0.567,1.273,1.274C63.8,51.408,63.229,51.975,62.526,51.975z"/>
		</g>
		<circle fill="#E9504B" cx="69.253" cy="31.139" r="12.296"/>
		<text transform="matrix(1 0 0 1 64.1484 38.5225)" fill="#FFFFFF" font-family="'Ubuntu-Bold'" font-size="21.2454">3</text>
	</g>
</g>
<g id="Kontaktqualifizierung_x5F_Kick-Off-Workshop" display="none">
	<g id="User_3_" display="inline">
		<path fill="#23A8E0" d="M57.535,40.33h-2v-5.643c0-4.116-3.349-7.464-7.464-7.464h-5.471c-4.116,0-7.464,3.348-7.464,7.464v5.643
			h-2v-5.643c0-4.825,3.63-8.819,8.303-9.393c-2.236-1.301-3.742-3.725-3.742-6.493c0-4.141,3.368-7.51,7.508-7.51
			c4.141,0,7.51,3.369,7.51,7.51c0,2.751-1.488,5.161-3.702,6.468c4.778,0.475,8.522,4.517,8.522,9.417V40.33z M45.205,13.292
			c-3.037,0-5.508,2.472-5.508,5.51c0,3.037,2.471,5.507,5.508,5.507c3.038,0,5.51-2.47,5.51-5.507
			C50.715,15.764,48.243,13.292,45.205,13.292z"/>
	</g>
	<path display="inline" fill="#23A8E0" d="M64.985,48.836H25.737c-0.552,0-1-0.447-1-1s0.448-1,1-1h39.248c0.553,0,1,0.447,1,1
		S65.538,48.836,64.985,48.836z"/>
	<path display="inline" fill="#E9504B" d="M36.409,54.128C35.294,51.26,26,50.485,21,50.276v-6.377c1,1.764,1.944,3.314,3.561,3.941
		c0.099,0.038,0.168,0.061,0.274,0.066c1.292,0.068,12.647,0.674,13.735,0.619c0.313-0.016,1.076-0.165,1.457-1.227
		c0.409-1.138,0.301-3.728-0.587-4.536c-0.703-0.639-1.894-0.75-4.263-0.973c-0.493-0.046-1.034-0.097-1.622-0.158
		c-2.588-0.268-5.423-0.943-5.996-1.083c-0.993-1.245-3.238-9.313-3.704-11.633c-0.326-1.636-2.155-2.367-3.179-2.652
		c3.76-0.406,6.698-3.596,6.698-7.461c0-4.141-3.369-7.51-7.51-7.51c-4.14,0-7.508,3.369-7.508,7.51
		c0,3.423,2.307,6.313,5.445,7.212c-2.802,0.146-6.23,1.341-6.899,5.249C8.294,46.46,8.11,55.483,10.356,58.084
		c2.859,3.312,14.655,3.139,18.108,3.011l4.708,17.335c0.121,0.445,0.524,0.738,0.964,0.738c0.086,0,0.175-0.011,0.263-0.035
		c0.533-0.145,0.848-0.694,0.703-1.227L30.185,59.8c-0.124-0.454-0.559-0.774-1.016-0.737c-5.675,0.289-15.39-0.075-17.299-2.285
		c-1.733-2.007-1.358-11.418,1.003-25.177c0.749-4.376,6.59-3.551,6.819-3.517c0.851,0.15,2.088,0.659,2.201,1.223
		c0.025,0.127,2.589,12.367,5.07,13.146l-0.002,0.008c0.136,0.035,3.356,0.847,6.385,1.16c0.595,0.062,1.142,0.113,1.64,0.16
		c1.321,0.124,2.685,0.252,3.056,0.435c0.198,0.449,0.288,1.758,0.131,2.313c-1.6-0.021-8.44-0.362-13.093-0.61
		c-2.711-1.233-3.966-7.353-4.223-9.645c-0.059-0.528-0.453-0.916-0.981-0.887C19.347,35.415,19,35.853,19,36.384V51.24
		c0,0.54,0.36,0.982,0.9,0.999c7.353,0.236,14.163,1.458,14.611,2.613c0.859,2.208,3.486,17.03,4.432,22.556
		c0.093,0.545,0.601,0.911,1.146,0.816c0.544-0.093,0.94-0.609,0.847-1.154C40.794,76.251,37.517,56.976,36.409,54.128z
		 M14.356,18.802c0-3.038,2.471-5.51,5.508-5.51c3.038,0,5.51,2.472,5.51,5.51c0,3.037-2.472,5.507-5.51,5.507
		C16.827,24.309,14.356,21.838,14.356,18.802z"/>
	<path display="inline" fill="#E9504B" d="M78.938,31.263c-0.62-3.623-3.609-4.912-6.282-5.197c3.242-0.831,5.648-3.768,5.648-7.264
		c0-4.141-3.369-7.51-7.51-7.51c-4.14,0-7.508,3.369-7.508,7.51c0,3.686,2.673,6.753,6.182,7.382
		c-0.89,0.208-3.118,0.905-3.482,2.729c-0.466,2.322-2.71,10.39-3.703,11.634c-0.573,0.14-3.408,0.815-5.995,1.083
		c-0.589,0.061-1.129,0.112-1.621,0.158c-2.369,0.223-3.559,0.334-4.262,0.973c-0.889,0.808-0.992,3.398-0.584,4.536
		c0.382,1.062,1.153,1.211,1.467,1.227c1.105,0.045,12.46-0.551,13.752-0.619c0.105-0.006,0.221-0.028,0.32-0.066
		C66.977,47.213,68,45.663,69,43.899v6.377c-5,0.209-14.375,0.982-15.488,3.852c-1.109,2.848-4.423,22.123-4.563,22.942
		c-0.094,0.545,0.27,1.062,0.813,1.154c0.553,0.095,1.062-0.272,1.153-0.816c0.946-5.525,3.589-20.348,4.447-22.556
		c0.449-1.155,7.305-2.376,14.657-2.613C70.56,52.223,71,51.78,71,51.24V36.384c0-0.531-0.428-0.969-0.957-0.999
		c-0.563-0.031-0.997,0.36-1.056,0.888c-0.255,2.292-1.508,8.41-4.225,9.645c-4.654,0.248-11.496,0.589-13.095,0.61
		c-0.156-0.552-0.069-1.854,0.128-2.308c0.394-0.189,1.746-0.317,3.057-0.44c0.498-0.047,1.045-0.099,1.64-0.16
		c3.029-0.313,6.25-1.125,6.386-1.16l-0.002-0.008c2.481-0.778,5.045-13.018,5.07-13.146c0.112-0.563,1.351-1.072,2.182-1.219
		c0.246-0.039,6.085-0.882,6.839,3.514c2.361,13.758,2.736,23.17,1.003,25.177c-1.908,2.209-11.624,2.576-17.299,2.285
		c-0.463-0.032-0.894,0.284-1.016,0.737l-4.917,18.106c-0.145,0.532,0.17,1.082,0.703,1.227c0.088,0.024,0.176,0.035,0.263,0.035
		c0.439,0,0.843-0.293,0.964-0.738l4.708-17.335c3.453,0.127,15.248,0.301,18.107-3.011C81.729,55.483,81.546,46.46,78.938,31.263z
		 M65.286,18.802c0-3.038,2.471-5.51,5.508-5.51c3.038,0,5.51,2.472,5.51,5.51c0,3.037-2.472,5.507-5.51,5.507
		C67.757,24.309,65.286,21.838,65.286,18.802z"/>
</g>
</svg>
