<svg width="90" height="90" viewBox="0 0 90 90" fill="none" xmlns="http://www.w3.org/2000/svg">
<path d="M75.84 38.17L78.774 33.74L50.723 15.163C50.727 15.074 50.737 14.984 50.737 14.893C50.737 11.847 48.266 9.37701 45.22 9.37701C42.174 9.37701 39.704 11.847 39.704 14.893C39.704 14.984 39.714 15.074 39.718 15.163L11.668 33.741L14.601 38.171L41.594 20.294V69.834H32.724L27.807 80.625H62.369L57.453 69.834H48.846V20.294L75.84 38.17Z" fill="white"/>
<path d="M26.673 50.634C26.673 50.472 26.64 50.308 26.539 50.161L15.363 34.25C15.335 34.21 15.294 34.185 15.26 34.151C15.226 34.119 15.203 34.078 15.164 34.051C15.157 34.045 15.15 34.045 15.143 34.04C15.091 34.006 15.034 33.988 14.976 33.968C14.933 33.951 14.892 33.927 14.848 33.918C14.796 33.909 14.744 33.916 14.691 33.916C14.639 33.916 14.587 33.909 14.536 33.918C14.491 33.927 14.45 33.951 14.406 33.968C14.349 33.989 14.292 34.006 14.241 34.04C14.235 34.045 14.226 34.045 14.22 34.051C14.18 34.077 14.156 34.119 14.123 34.152C14.09 34.186 14.049 34.21 14.021 34.25L2.845 50.161C2.744 50.307 2.71 50.472 2.712 50.634H2.697C2.697 58.782 8.067 65.388 14.692 65.388C21.318 65.388 26.688 58.783 26.688 50.634H26.673V50.634ZM4.518 50.634L14.692 36.148L24.867 50.634H4.518Z" fill="white"/>
<path d="M87.723 50.634C87.723 50.472 87.69 50.308 87.588 50.161L76.412 34.25C76.383 34.21 76.342 34.185 76.308 34.151C76.275 34.119 76.251 34.078 76.212 34.051C76.206 34.045 76.198 34.045 76.191 34.04C76.14 34.006 76.082 33.988 76.025 33.968C75.982 33.951 75.941 33.927 75.896 33.918C75.845 33.909 75.792 33.916 75.74 33.916C75.689 33.916 75.636 33.909 75.584 33.918C75.541 33.927 75.5 33.951 75.455 33.968C75.398 33.989 75.342 34.006 75.291 34.04C75.283 34.045 75.275 34.045 75.27 34.051C75.231 34.077 75.206 34.119 75.172 34.152C75.139 34.186 75.098 34.21 75.07 34.25L63.895 50.161C63.793 50.307 63.76 50.472 63.76 50.634H63.746C63.746 58.782 69.115 65.388 75.74 65.388C82.367 65.388 87.736 58.783 87.736 50.634H87.723V50.634ZM65.566 50.634L75.74 36.148L85.916 50.634H65.566Z" fill="white"/>
</svg>
