<svg width="90" height="90" viewBox="0 0 90 90" fill="none" xmlns="http://www.w3.org/2000/svg">
<path d="M25.668 78.64H15.921V49.005L25.668 42.645V78.64Z" fill="white"/>
<path d="M39.561 41.22H29.814V78.64H39.561V41.22Z" fill="white"/>
<path d="M53.453 78.64H43.706V41.22L53.453 34.741V78.64Z" fill="white"/>
<path d="M67.346 34.741H57.6V78.639H67.346V34.741Z" fill="white"/>
<path d="M87.736 11.361L63.279 17.915L69.467 24.101L61.703 31.812L52.027 26.922L43.743 39.945L24.494 34.08L2.69701 56.687L8.43801 62.224L26.843 43.134L47.219 49.341L54.879 37.298L63.242 41.525L75.105 29.741L81.184 35.818L87.736 11.361Z" fill="white"/>
</svg>
