<?xml version="1.0" encoding="UTF-8"?>
<svg width="159px" height="142px" viewBox="0 0 159 142" version="1.1" xmlns="http://www.w3.org/2000/svg" xmlns:xlink="http://www.w3.org/1999/xlink">
    <!-- Generator: Sketch 49.3 (51167) - http://www.bohemiancoding.com/sketch -->
    <title>Page 1</title>
    <desc>Created with Sketch.</desc>
    <defs>
        <polygon id="path-1" points="1.6336 0.5622 36.7396 0.5622 36.7396 36 1.6336 36"></polygon>
    </defs>
    <g id="Page-1" stroke="none" stroke-width="1" fill="none" fill-rule="evenodd">
        <g id="Desktop" transform="translate(-472.000000, -477.000000)">
            <g id="Page-1" transform="translate(472.000000, 477.000000)">
                <path d="M44.4844,48.0228 L44.4884,46.3428 C44.4904,46.0308 44.7784,45.8588 45.1144,45.9488 L75.1184,54.0588 L102.6244,38.1688 C102.8964,38.0128 103.1124,38.1368 103.1144,38.4468 L103.1184,40.1268 C103.1204,40.4308 102.9044,40.8048 102.6324,40.9608 L75.1184,56.8428 L45.1084,48.7508 C44.7704,48.6608 44.4844,48.3248 44.4844,48.0228 Z M75.1184,70.7928 L102.6744,54.9648 C102.9424,54.8088 103.1624,54.9388 103.1624,55.2428 L103.1684,56.9228 C103.1684,57.2328 102.9524,57.6068 102.6824,57.7648 L75.1184,73.7068 L75.1184,87.5848 L114.9084,64.7308 C115.1804,64.5748 115.3944,64.2008 115.3944,63.8908 L115.2624,17.4068 C115.2624,17.0968 115.0424,16.9728 114.7744,17.1288 L75.1184,40.0088 L45.1544,31.9448 C44.8184,31.8568 44.5304,31.5288 44.5324,31.2188 L44.5364,29.5388 C44.5384,29.2268 44.8264,29.0548 45.1624,29.1468 L75.1184,37.1988 L115.3224,14.0248 L115.3284,14.0308 L120.3524,3.5768 L115.3284,0.0008 L75.1204,23.2008 L75.1184,23.2008 L29.5904,10.9628 C29.2524,10.8708 28.9644,11.0428 28.9644,11.3548 L28.8324,57.8368 C28.8304,58.1488 29.1184,58.4748 29.4544,58.5648 L75.1184,70.7928 Z" id="Fill-1" fill="#FEFEFE"></path>
                <polygon id="Fill-3" fill="#FEFEFE" points="0 141.7318 22.02 141.7318 22.02 134.1238 9.308 134.1238 9.308 127.6058 20.554 127.6058 20.554 119.7618 9.308 119.7618 9.308 113.9958 22.02 113.9958 22.02 106.2938 0 106.2938"></polygon>
                <path d="M42.8624,132.472 L38.9404,132.472 L38.9404,115.698 L42.8624,115.698 C47.4924,115.698 51.2744,119.478 51.2744,124.062 C51.2744,128.69 47.4924,132.472 42.8624,132.472 M42.8144,106.294 L29.6804,106.294 L29.6804,141.732 L42.8144,141.732 C52.5964,141.732 60.5324,133.794 60.5324,124.014 C60.5324,114.234 52.5964,106.294 42.8144,106.294" id="Fill-5" fill="#FEFEFE"></path>
                <polygon id="Fill-7" fill="#FEFEFE" points="65.5966 141.7318 87.6146 141.7318 87.6146 134.1238 74.9046 134.1238 74.9046 127.6058 86.1506 127.6058 86.1506 119.7618 74.9046 119.7618 74.9046 113.9958 87.6146 113.9958 87.6146 106.2938 65.5966 106.2938"></polygon>
                <path d="M110.0196,132.3294 C105.1996,132.3294 101.7036,128.8334 101.7036,124.0134 C101.7036,119.1934 105.1996,115.6994 110.0196,115.6994 C112.4276,115.6994 114.5056,116.5474 115.9716,118.0134 L122.4916,111.4474 C119.2796,108.2334 114.8856,106.2934 110.0196,106.2934 C100.2376,106.2934 92.2996,114.2334 92.2996,124.0134 C92.2996,133.7934 100.2376,141.7314 110.0196,141.7314 C114.9316,141.7314 119.3736,139.7034 122.5876,136.4894 L115.9716,129.9674 C114.5056,131.4794 112.4276,132.3294 110.0196,132.3294" id="Fill-9" fill="#FEFEFE"></path>
                <g id="Group-13" transform="translate(122.000000, 105.732200)">
                    <mask id="mask-2" fill="white">
                        <use xlink:href="#path-1"></use>
                    </mask>
                    <g id="Clip-12"></g>
                    <polygon id="Fill-11" fill="#FEFEFE" mask="url(#mask-2)" points="26.0136 0.5622 19.1616 12.3762 12.3596 0.5622 1.6336 0.5622 14.5796 22.9582 14.5796 36.0002 23.7936 36.0002 23.7936 22.9582 36.7396 0.5622"></polygon>
                </g>
            </g>
        </g>
    </g>
</svg>