<?xml version="1.0" encoding="utf-8"?>
<!-- Generator: Adobe Illustrator 16.0.0, SVG Export Plug-In . SVG Version: 6.00 Build 0)  -->
<!DOCTYPE svg PUBLIC "-//W3C//DTD SVG 1.1//EN" "http://www.w3.org/Graphics/SVG/1.1/DTD/svg11.dtd">
<svg version="1.1" id="Ebene_1" xmlns="http://www.w3.org/2000/svg" xmlns:xlink="http://www.w3.org/1999/xlink" x="0px" y="0px"
	 width="90px" height="90px" viewBox="0 0 90 90" enable-background="new 0 0 90 90" xml:space="preserve">
<path fill="#FFFFFF" d="M71.021,0.376c-1.922,0-2.756,1.211-3.446,2.452c0,0-27.73,49.176-28.643,50.792
	c0.046,0.088,18.291,33.555,18.291,33.555c0.638,1.141,1.623,2.451,3.595,2.451h12.857c0.775,0,1.381-0.293,1.708-0.822
	c0.343-0.549,0.334-1.275-0.026-1.988L57.21,53.658c-0.018-0.023-0.018-0.059,0-0.084l28.5-50.391
	c0.357-0.71,0.365-1.437,0.026-1.986c-0.327-0.529-0.937-0.822-1.712-0.822L71.021,0.376L71.021,0.376z"/>
<path fill="#FFFFFF" d="M16.945,18.002c-0.776,0-1.428,0.272-1.756,0.804c-0.339,0.55-0.287,1.258,0.074,1.975l8.703,15.066
	c0.015,0.029,0.015,0.047,0,0.073L10.29,60.055c-0.357,0.711-0.339,1.424,0,1.975c0.328,0.529,0.907,0.879,1.682,0.879h12.872
	c1.925,0,2.853-1.301,3.511-2.488c0,0,13.375-23.654,13.896-24.573c-0.053-0.085-8.85-15.432-8.85-15.432
	c-0.641-1.141-1.61-2.414-3.584-2.414H16.945L16.945,18.002z"/>
</svg>
