<svg xmlns="http://www.w3.org/2000/svg" viewBox="0 0 77.25 68.05"><defs><style>.cls-1{fill:#1b223e;}.cls-2{fill:#ea504b;}.cls-3{fill:#0ad;}</style></defs><title>edecy_logo</title><g id="Ebene_2" data-name="Ebene 2"><g id="Ebene_2-2" data-name="Ebene 2"><path class="cls-1" d="M0,50.8H10.72v3.75H4.53v2.8H10v3.82H4.53v3.17h6.19v3.71H0Z"/><path class="cls-1" d="M14.44,50.8h6.4a8.63,8.63,0,0,1,0,17.25h-6.4ZM19,63.54h1.91a4.08,4.08,0,1,0,0-8.16H19Z"/><path class="cls-1" d="M31.92,50.8H42.64v3.75H36.45v2.8h5.48v3.82H36.45v3.17h6.19v3.71H31.92Z"/><path class="cls-1" d="M56.44,56.5a4,4,0,0,0-2.9-1.12,4,4,0,1,0,2.9,6.94l3.22,3.17A8.62,8.62,0,1,1,53.54,50.8a8.5,8.5,0,0,1,6.07,2.51Z"/><path class="cls-1" d="M71,61.7v6.35H66.47V61.7l-6.3-10.9h5.22l3.31,5.75L72,50.8h5.22Z"/><polygon class="cls-2" points="36.95 34.18 36.56 34.45 36.15 34.3 36.15 27.6 36.56 27.66 36.95 27.55 36.95 34.18"/><polygon class="cls-2" points="36.95 25.99 36.56 26.31 36.15 26.11 36.15 19.41 36.56 19.47 36.95 19.36 36.95 25.99"/><path class="cls-2" d="M55.92,31.5,36.56,42.62V35.87L50,28.11a.52.52,0,0,0,.24-.41v-.82c0-.14-.11-.21-.24-.13l-13.41,7.7V27.66L50,19.93a.49.49,0,0,0,.23-.4v-.82c0-.15-.1-.21-.24-.13L36.56,26.31V19.47L55.86,8.34c.13-.08.23,0,.23.13l.07,22.62a.52.52,0,0,1-.24.41"/><path class="cls-3" d="M58.57,1.74,56.13,0,36.56,11.29h0l-22.16-6c-.16,0-.3,0-.3.2L14,28.15a.4.4,0,0,0,.3.35l22.23,6V27.66L22,23.73a.43.43,0,0,1-.3-.36v-.82c0-.15.14-.23.31-.19l14.6,3.95V19.47L22,15.55a.42.42,0,0,1-.31-.36v-.81a.23.23,0,0,1,.31-.2L36.56,18.1h0L56.12,6.83h0Z"/></g></g></svg>